<svg width="740" height="156" viewBox="0 0 740 156" fill="none" xmlns="http://www.w3.org/2000/svg">
<path fill-rule="evenodd" clip-rule="evenodd" d="M428.553 1.71245L407.754 0.0701141L400.701 89.3921L414.737 90.5004L417.76 52.2196L422.609 52.6024C425.842 52.8577 428.032 53.8438 429.181 55.5609C430.414 57.2847 430.87 60.1882 430.547 64.2715L429.257 80.6047C428.996 83.9223 428.899 86.2259 428.969 87.5154C429.038 88.8048 429.271 90.1928 429.667 91.6793L443.958 92.8077C443.399 91.2228 443.094 89.658 443.045 88.1133C443.003 86.4836 443.082 84.3926 443.284 81.8406L444.523 66.1454C444.939 60.8712 444.549 56.6032 443.351 53.3415C442.239 50.0865 440.021 47.8142 436.699 46.5247L436.719 46.2695C443.039 44.2861 446.565 38.6582 447.297 29.3857L447.73 23.8988C448.281 16.9232 447.029 11.6456 443.973 8.06593C440.924 4.40123 435.784 2.2834 428.553 1.71245ZM430.296 38.1868C428.82 39.5255 426.679 40.084 423.872 39.8623L418.768 39.4593L420.783 13.9387L427.163 14.4425C429.63 14.6373 431.359 15.5014 432.351 17.0349C433.428 18.5751 433.839 20.9615 433.583 24.1942L433.039 31.0847C432.771 34.4874 431.856 36.8548 430.296 38.1868ZM259.243 5.78256L297.516 2.6568L298.558 15.4143L274.318 17.394L276.246 40.9954L295.51 39.4221L296.552 52.1796L277.288 53.7529L279.528 81.1816L303.767 79.202L304.809 91.9595L266.537 95.0852L259.243 5.78256ZM165.623 21.7274L148.287 25.1153L165.473 113.052L177.784 110.646L165.239 46.4522L165.49 46.4031L194.617 107.356L208.813 104.582L191.628 16.6455L179.316 19.0514L189.603 71.6877L189.352 71.7368L165.623 21.7274ZM89.2815 41.8885L102.803 37.9623L127.788 124.008L114.267 127.935L89.2815 41.8885ZM47.3017 153.081C41.0075 155.495 35.4996 155.552 30.7782 153.25C26.1365 150.917 22.5628 146.484 20.0571 139.951L2.82274 95.0144C0.317066 88.4811 0.00999784 82.7953 1.9016 77.9571C3.87285 73.0884 8.0056 69.447 14.2999 67.033C20.5942 64.6189 26.0622 64.5782 30.7039 66.9107C35.4253 69.2126 39.0389 73.6302 41.5446 80.1636L44.9365 89.0074L32.5073 93.7744L28.7945 84.0939C26.8083 78.9151 23.6241 77.166 19.2421 78.8466C14.8599 80.5273 13.662 83.957 15.6482 89.1359L33.5701 135.865C35.5257 140.964 38.6946 142.673 43.0767 140.993C47.4588 139.312 48.672 135.922 46.7164 130.823L41.8119 118.035L54.2411 113.268L58.7789 125.1C61.2846 131.633 61.5518 137.334 59.5806 142.203C57.689 147.041 53.5961 150.667 47.3017 153.081ZM514.617 10.6059L552.345 17.7568L549.962 30.3329L526.067 25.804L521.657 49.0698L540.647 52.6691L538.264 65.2452L519.274 61.6459L514.149 88.6845L538.044 93.2134L535.66 105.789L497.932 98.6386L514.617 10.6059ZM591.082 113.464C593.405 118.175 597.793 121.504 604.247 123.45C610.702 125.396 616.158 125.036 620.616 122.369C625.156 119.727 628.436 115.057 630.456 108.357L634.114 96.2247L621.369 92.3819L617.415 105.495C615.839 110.724 612.804 112.661 608.31 111.306C603.817 109.951 602.358 106.659 603.935 101.43L618.383 53.5129C619.984 48.2024 623.031 46.2245 627.525 47.5794C632.018 48.9343 633.464 52.267 631.863 57.5775L628.87 67.5041L641.615 71.347L644.35 62.2782C646.37 55.5788 646.218 49.8735 643.895 45.1624C641.654 40.4759 637.306 37.1596 630.852 35.2135C624.398 33.2674 618.901 33.6153 614.361 36.2572C609.902 38.9238 606.663 43.6068 604.643 50.3062L590.75 96.3852C588.73 103.085 588.84 108.778 591.082 113.464ZM690.387 152.867C684.097 150.212 680.088 146.436 678.357 141.537C676.66 136.561 677.222 130.731 680.042 124.048L682.033 119.331L694.298 124.508L691.909 130.168C689.652 135.514 690.765 139.133 695.246 141.024C697.447 141.953 699.364 142.021 700.995 141.228C702.739 140.389 704.224 138.515 705.452 135.606C706.912 132.147 707.403 128.788 706.926 125.53C706.482 122.194 704.916 117.782 702.231 112.295C698.875 105.322 696.933 99.5002 696.403 94.8307C695.906 90.0825 696.67 85.3106 698.694 80.5149C701.448 73.9896 705.222 69.6548 710.017 67.5107C714.846 65.2878 720.405 65.5036 726.694 68.1581C732.905 70.7794 736.819 74.5619 738.438 79.5056C740.168 84.4038 739.623 90.1942 736.802 96.8767L735.359 100.297L723.095 95.1204L724.887 90.875C726.081 88.0448 726.393 85.7684 725.824 84.046C725.287 82.245 723.958 80.8965 721.835 80.0006C717.511 78.1757 714.237 79.8969 712.014 85.1643C710.753 88.1518 710.361 91.2745 710.839 94.5325C711.395 97.8237 713.016 102.213 715.702 107.7C719.135 114.706 721.061 120.567 721.48 125.282C721.898 129.997 721.012 134.949 718.822 140.138C715.968 146.899 712.088 151.374 707.181 153.564C702.353 155.787 696.755 155.554 690.387 152.867ZM362.944 18.1159C362.944 18.087 363.013 18.0516 363.098 18.0368C363.593 17.9514 364.94 18.0329 365.072 18.1564C365.145 18.2245 365.226 18.2803 365.252 18.2803C365.335 18.2803 365.912 18.8916 365.912 18.9797C365.912 19.0266 365.937 19.065 365.968 19.065C365.999 19.065 366.024 19.1154 366.024 19.1771C366.024 19.2136 366.033 19.2462 366.046 19.2667C366.056 19.2808 366.067 19.2892 366.08 19.2892C366.09 19.2892 366.099 19.2937 366.107 19.3017C366.124 19.319 366.136 19.3525 366.136 19.3908C366.136 19.4246 366.154 19.493 366.183 19.5699C366.201 19.6201 366.224 19.674 366.248 19.7244C366.31 19.852 366.36 19.9799 366.36 20.0088C366.36 20.0375 366.398 20.1334 366.444 20.2216C366.49 20.3099 366.527 20.4248 366.528 20.477C366.528 20.4979 366.532 20.5198 366.539 20.5398C366.541 20.5469 366.544 20.5538 366.547 20.5603C366.551 20.5677 366.555 20.5746 366.559 20.5808C366.566 20.592 366.575 20.6009 366.584 20.6064C366.615 20.6255 366.64 20.7027 366.64 20.778C366.64 20.8532 366.665 20.9147 366.696 20.9147C366.727 20.9147 366.752 20.9652 366.752 21.0268C366.752 21.0885 366.777 21.1389 366.808 21.1389C366.822 21.1389 366.835 21.1548 366.845 21.181C366.857 21.2119 366.864 21.257 366.864 21.3071C366.864 21.3996 366.889 21.4753 366.92 21.4753C366.951 21.4753 366.976 21.5257 366.976 21.5873C366.976 21.649 367.001 21.6995 367.032 21.6995C367.063 21.6995 367.088 21.7625 367.088 21.8396C367.088 21.9167 367.113 21.9797 367.144 21.9797C367.175 21.9797 367.2 22.0302 367.2 22.0918C367.2 22.1535 367.225 22.2039 367.256 22.2039C367.287 22.2039 367.312 22.2796 367.312 22.3721C367.312 22.4646 367.337 22.5402 367.368 22.5402C367.376 22.5402 367.383 22.5434 367.39 22.5492C367.392 22.5512 367.395 22.5536 367.397 22.5563C367.399 22.5592 367.401 22.5624 367.404 22.5659C367.416 22.5865 367.424 22.6177 367.424 22.6523C367.424 22.714 367.449 22.7644 367.48 22.7644C367.511 22.7644 367.536 22.8401 367.536 22.9326L367.536 22.9503C367.536 22.9562 367.537 22.9619 367.537 22.9676C367.539 22.9881 367.541 23.0072 367.545 23.0242C367.547 23.0312 367.548 23.0378 367.55 23.044C367.552 23.0486 367.553 23.053 367.554 23.0572C367.564 23.0842 367.578 23.1008 367.592 23.1008C367.623 23.1008 367.648 23.1512 367.648 23.2129C367.648 23.2745 367.673 23.325 367.704 23.325C367.735 23.325 367.76 23.4006 367.76 23.4931C367.76 23.5856 367.785 23.6613 367.816 23.6613C367.847 23.6613 367.872 23.7117 367.872 23.7734C367.872 23.8351 367.897 23.8855 367.928 23.8855C367.959 23.8855 367.984 23.9344 367.984 23.9942C367.984 24.0541 368.009 24.1187 368.04 24.1377C368.071 24.1568 368.096 24.2214 368.096 24.2812C368.096 24.3411 368.121 24.39 368.152 24.39C368.157 24.39 368.162 24.3913 368.167 24.3938C368.177 24.3993 368.186 24.4102 368.193 24.425C368.202 24.4444 368.208 24.4703 368.208 24.4987C368.208 24.5585 368.233 24.6231 368.264 24.6422C368.295 24.6613 368.32 24.7621 368.32 24.8664C368.32 24.9707 368.345 25.0716 368.376 25.0906C368.407 25.1097 368.432 25.2736 368.432 25.455C368.432 25.6363 368.407 25.8002 368.376 25.8193C368.345 25.8383 368.32 25.9408 368.32 26.0469C368.32 26.153 368.295 26.2397 368.264 26.2397C368.25 26.2397 368.237 26.2542 368.227 26.2782C368.215 26.3068 368.208 26.3488 368.208 26.3955C368.208 26.487 368.162 26.5845 368.096 26.632C368.034 26.6765 367.984 26.7458 367.984 26.7861C367.984 26.8812 367.505 27.3607 367.41 27.3607C367.37 27.3607 367.3 27.4112 367.256 27.4728C367.212 27.5345 367.13 27.5849 367.076 27.5849C367.037 27.5849 367.003 27.5959 366.987 27.6119C366.98 27.6186 366.976 27.6262 366.976 27.6341C366.976 27.6613 366.9 27.7148 366.808 27.7531C366.716 27.7914 366.64 27.8449 366.64 27.8721C366.64 27.8991 366.613 27.9213 366.58 27.9213C366.547 27.9213 366.41 27.9969 366.276 28.0894C366.142 28.1819 366.005 28.2576 365.972 28.2576C365.939 28.2576 365.912 28.2824 365.912 28.3125C365.912 28.3291 365.891 28.3491 365.859 28.3673C365.832 28.3823 365.796 28.3961 365.758 28.4055C365.673 28.4266 365.563 28.4901 365.513 28.5468C365.464 28.6035 365.382 28.6499 365.331 28.6499C365.281 28.6499 365.24 28.6752 365.24 28.706C365.24 28.7368 365.195 28.7621 365.14 28.7621C365.114 28.7621 365.08 28.7741 365.049 28.7936C365.015 28.814 364.983 28.8426 364.96 28.8741C364.933 28.9116 364.895 28.9449 364.858 28.9653C364.843 28.9734 364.829 28.9795 364.815 28.9829C364.807 28.9851 364.799 28.9862 364.792 28.9862C364.744 28.9862 364.668 29.0367 364.624 29.0984C364.58 29.16 364.498 29.2104 364.444 29.2104C364.389 29.2104 364.344 29.2357 364.344 29.2665C364.344 29.2973 364.306 29.3226 364.26 29.3226C364.251 29.3226 364.243 29.3235 364.235 29.3251C364.226 29.327 364.217 29.33 364.21 29.3339C364.196 29.3405 364.186 29.3497 364.181 29.3603C364.179 29.3633 364.178 29.3665 364.177 29.3697C364.176 29.3726 364.176 29.3756 364.176 29.3786C364.176 29.3871 364.173 29.3953 364.168 29.4025C364.163 29.4089 364.157 29.4147 364.149 29.4195C364.134 29.4289 364.114 29.4347 364.092 29.4347C364.046 29.4347 364.008 29.4599 364.008 29.4907C364.008 29.5215 363.97 29.5468 363.924 29.5468C363.878 29.5468 363.84 29.572 363.84 29.6028C363.84 29.6337 363.802 29.6589 363.756 29.6589C363.738 29.6589 363.722 29.6625 363.709 29.6687C363.687 29.6789 363.672 29.6958 363.672 29.7149C363.672 29.7363 363.654 29.755 363.627 29.7645C363.615 29.7686 363.602 29.771 363.588 29.771C363.542 29.771 363.504 29.7962 363.504 29.827C363.504 29.8578 363.465 29.8831 363.418 29.8831C363.37 29.8831 363.277 29.9335 363.211 29.9952C363.145 30.0569 363.058 30.1073 363.018 30.1073L363.011 30.1075C363.008 30.1077 363.004 30.108 363.001 30.1086C362.988 30.1106 362.976 30.1151 362.966 30.1213C362.953 30.1303 362.944 30.1428 362.944 30.1565C362.944 30.1704 362.924 30.1912 362.892 30.2133C362.862 30.2345 362.821 30.2568 362.776 30.2755C362.684 30.3137 362.608 30.3672 362.608 30.3944C362.608 30.4215 362.56 30.4436 362.501 30.4436C362.442 30.4436 362.385 30.4638 362.375 30.4885C362.364 30.5132 362.243 30.5968 362.104 30.6741C361.679 30.9117 361.582 30.9725 361.466 31.0742C361.434 31.1024 361.396 31.1278 361.362 31.1458C361.33 31.1622 361.301 31.1723 361.281 31.1723C361.255 31.1723 361.231 31.1833 361.218 31.1998C361.217 31.202 361.215 31.2044 361.214 31.2068L361.211 31.2113C361.209 31.2167 361.208 31.2224 361.208 31.2283C361.208 31.2478 361.195 31.2651 361.175 31.2751C361.163 31.281 361.149 31.2844 361.135 31.2844C361.094 31.2844 361.007 31.3348 360.941 31.3965C360.875 31.4582 360.787 31.5086 360.747 31.5086C360.706 31.5086 360.636 31.5591 360.592 31.6207C360.548 31.6824 360.466 31.7328 360.412 31.7328C360.357 31.7328 360.312 31.758 360.312 31.7888C360.312 31.8197 360.271 31.8449 360.221 31.8449C360.17 31.8449 360.083 31.8983 360.026 31.9636C360.02 31.9704 360.014 31.9769 360.008 31.983C360.002 31.9888 359.996 31.9943 359.99 31.9994C359.978 32.0097 359.966 32.0187 359.953 32.0263C359.911 32.0518 359.868 32.0614 359.838 32.0495C359.79 32.0312 359.752 32.0467 359.751 32.085C359.751 32.1563 359.403 32.4054 359.305 32.4054C359.274 32.4054 359.248 32.4265 359.248 32.452C359.248 32.4661 359.227 32.4898 359.194 32.5156C359.173 32.5312 359.149 32.5475 359.122 32.563L359.111 32.5693L359.094 32.5781C359.009 32.6218 358.927 32.6701 358.912 32.6855C358.854 32.7439 358.542 32.9175 358.394 32.9741C358.309 33.0065 358.24 33.0558 358.24 33.0835C358.24 33.0987 358.228 33.1124 358.21 33.1217C358.203 33.1254 358.195 33.1284 358.185 33.1306C358.181 33.1317 358.175 33.1326 358.17 33.1332C358.165 33.1338 358.159 33.1341 358.154 33.1341C358.126 33.1341 358.084 33.1509 358.04 33.177C358.008 33.1961 357.975 33.2202 357.947 33.2462C357.881 33.3079 357.794 33.3583 357.754 33.3583C357.713 33.3583 357.68 33.3835 357.68 33.4144C357.68 33.4452 357.635 33.4704 357.58 33.4704C357.526 33.4704 357.444 33.5209 357.4 33.5826C357.356 33.6442 357.287 33.6946 357.248 33.6946C357.226 33.6946 357.206 33.7025 357.193 33.7149C357.182 33.7247 357.176 33.7372 357.176 33.7507C357.176 33.7815 357.143 33.8067 357.103 33.8067C357.062 33.8067 356.975 33.8572 356.909 33.9189C356.843 33.9805 356.761 34.0309 356.728 34.0309C356.695 34.0309 356.613 34.0814 356.547 34.1431C356.481 34.2047 356.394 34.2552 356.354 34.2552C356.313 34.2552 356.28 34.2804 356.28 34.3112C356.28 34.342 356.247 34.3673 356.206 34.3673C356.166 34.3673 356.079 34.4177 356.013 34.4794C355.994 34.4971 355.973 34.514 355.953 34.5289L355.94 34.5387C355.933 34.5436 355.926 34.5483 355.919 34.5527C355.883 34.5764 355.85 34.5915 355.832 34.5915C355.799 34.5915 355.717 34.6419 355.651 34.7036C355.585 34.7652 355.498 34.8157 355.458 34.8157C355.438 34.8157 355.42 34.8217 355.407 34.8314C355.393 34.8416 355.384 34.8559 355.384 34.8717C355.384 34.9026 355.334 34.9278 355.272 34.9278C355.21 34.9278 355.16 34.9488 355.16 34.9743C355.16 35 355.091 35.0567 355.006 35.1004C354.921 35.1443 354.819 35.2115 354.778 35.2501C354.774 35.2539 354.77 35.2576 354.765 35.2613C354.759 35.2664 354.752 35.2714 354.745 35.2761C354.732 35.2846 354.718 35.2924 354.704 35.2989C354.695 35.3031 354.685 35.3069 354.676 35.3099C354.657 35.3164 354.639 35.3202 354.624 35.3202C354.58 35.3202 354.544 35.3454 354.544 35.3762C354.544 35.407 354.499 35.4323 354.444 35.4323C354.438 35.4323 354.432 35.4328 354.426 35.434C354.421 35.4348 354.416 35.4359 354.412 35.4372C354.408 35.4382 354.404 35.4395 354.4 35.4408C354.391 35.4439 354.382 35.4477 354.373 35.4522C354.333 35.4725 354.291 35.5063 354.264 35.5444C354.22 35.606 354.15 35.6565 354.109 35.6565C354.069 35.6565 353.981 35.7069 353.915 35.7686C353.849 35.8302 353.762 35.8807 353.721 35.8807C353.681 35.8807 353.648 35.9059 353.648 35.9367C353.648 35.9558 353.631 35.9727 353.605 35.9829C353.589 35.9891 353.569 35.9928 353.548 35.9928C353.494 35.9928 353.412 36.0432 353.368 36.1049C353.324 36.1665 353.242 36.217 353.188 36.217C353.133 36.217 353.088 36.2422 353.088 36.273C353.088 36.3039 353.055 36.3291 353.015 36.3291C352.974 36.3291 352.887 36.3795 352.821 36.4412C352.755 36.5029 352.673 36.5533 352.64 36.5533C352.616 36.5533 352.57 36.5772 352.523 36.6116C352.504 36.6252 352.486 36.6404 352.469 36.6564C352.408 36.7132 352.289 36.7952 352.205 36.8386C352.121 36.882 352.003 36.9618 351.943 37.0157C351.884 37.0697 351.802 37.1138 351.762 37.1138C351.737 37.1138 351.714 37.1234 351.701 37.138C351.693 37.1471 351.688 37.1581 351.688 37.1699C351.688 37.2007 351.638 37.2259 351.576 37.2259C351.514 37.2259 351.464 37.2469 351.464 37.2726C351.464 37.2984 351.319 37.393 351.142 37.4828C351.044 37.5326 350.953 37.5832 350.89 37.6224C350.839 37.6539 350.806 37.678 350.801 37.6884C350.791 37.7115 350.74 37.7304 350.688 37.7304C350.635 37.7304 350.556 37.7809 350.512 37.8425C350.468 37.9042 350.386 37.9546 350.332 37.9546C350.304 37.9546 350.278 37.9612 350.26 37.9718C350.243 37.9819 350.232 37.9956 350.232 38.0107C350.232 38.0415 350.206 38.0667 350.174 38.0667C350.142 38.0667 350.061 38.1172 349.995 38.1788C349.929 38.2405 349.842 38.2909 349.802 38.2909C349.761 38.2909 349.728 38.3162 349.728 38.347C349.728 38.3778 349.695 38.403 349.654 38.403C349.614 38.403 349.527 38.4535 349.461 38.5151C349.395 38.5768 349.313 38.6272 349.28 38.6272C349.247 38.6272 349.165 38.6777 349.099 38.7393C349.033 38.801 348.946 38.8514 348.906 38.8514C348.881 38.8514 348.859 38.8608 348.846 38.8751C348.837 38.8843 348.832 38.8955 348.832 38.9075C348.832 38.9383 348.787 38.9636 348.732 38.9636C348.678 38.9636 348.596 39.014 348.552 39.0757C348.508 39.1373 348.426 39.1878 348.372 39.1878C348.317 39.1878 348.272 39.213 348.272 39.2438C348.272 39.257 348.264 39.2691 348.25 39.2787C348.232 39.2916 348.204 39.2999 348.172 39.2999C348.118 39.2999 348.036 39.3503 347.992 39.412C347.97 39.4426 347.945 39.4705 347.924 39.4908C347.902 39.5113 347.883 39.5241 347.872 39.5241C347.812 39.5241 347.127 39.9365 347.105 39.9857C347.095 40.0092 347.038 40.0286 346.979 40.0286C346.92 40.0286 346.872 40.0538 346.872 40.0846C346.872 40.1154 346.827 40.1407 346.772 40.1407C346.718 40.1407 346.636 40.1911 346.592 40.2527C346.548 40.3144 346.466 40.3649 346.412 40.3649C346.357 40.3649 346.312 40.3901 346.312 40.4209C346.312 40.4518 346.279 40.477 346.239 40.477C346.198 40.477 346.111 40.5274 346.045 40.5891C345.979 40.6507 345.895 40.7012 345.859 40.7012C345.846 40.7012 345.829 40.7066 345.811 40.716C345.776 40.7335 345.735 40.7645 345.703 40.7997C345.653 40.8538 345.536 40.9358 345.444 40.9819C345.411 40.9984 345.373 41.0196 345.336 41.0425C345.313 41.0567 345.29 41.0715 345.269 41.0863C345.248 41.1007 345.228 41.1151 345.21 41.1287C345.202 41.1348 345.195 41.1407 345.188 41.1464C345.18 41.1523 345.174 41.1581 345.167 41.1636C345.108 41.2176 345.026 41.2617 344.986 41.2617C344.945 41.2617 344.912 41.2869 344.912 41.3177C344.912 41.3486 344.867 41.3738 344.812 41.3738C344.758 41.3738 344.676 41.4243 344.632 41.4859C344.588 41.5476 344.506 41.598 344.452 41.598C344.419 41.598 344.391 41.6057 344.372 41.6175C344.36 41.6257 344.352 41.636 344.352 41.6472C344.352 41.6744 344.276 41.7279 344.184 41.7662C344.092 41.8044 344.016 41.858 344.016 41.8851C344.016 41.9122 343.966 41.9343 343.904 41.9343C343.884 41.9343 343.864 41.9367 343.848 41.941C343.839 41.9432 343.831 41.946 343.824 41.9492C343.804 41.9581 343.792 41.9702 343.792 41.9835C343.792 42.0107 343.716 42.0642 343.624 42.1025C343.574 42.1232 343.529 42.1485 343.498 42.1716C343.49 42.1772 343.484 42.1827 343.478 42.188C343.472 42.1937 343.467 42.1991 343.463 42.2042C343.459 42.2106 343.456 42.2165 343.456 42.2215C343.456 42.2485 343.407 42.2706 343.348 42.2706C343.34 42.2706 343.332 42.2713 343.324 42.2725C343.32 42.2731 343.315 42.2738 343.311 42.2747C343.301 42.2766 343.291 42.2794 343.28 42.2827C343.274 42.2848 343.267 42.2872 343.26 42.2898C343.253 42.2926 343.246 42.2957 343.239 42.2991C343.22 42.3077 343.203 42.3177 343.187 42.3288C343.176 42.337 343.165 42.3457 343.156 42.3547C343.145 42.3658 343.133 42.3764 343.12 42.3861C343.093 42.4075 343.063 42.4246 343.04 42.433C343.035 42.4347 343.031 42.436 343.026 42.437C343.021 42.4382 343.016 42.4388 343.012 42.4388C342.998 42.4388 342.984 42.4436 342.974 42.4515C342.961 42.4618 342.952 42.4774 342.952 42.4948C342.952 42.5257 342.919 42.5509 342.878 42.5509C342.838 42.5509 342.751 42.6013 342.685 42.663C342.619 42.7247 342.537 42.7751 342.504 42.7751C342.471 42.7751 342.389 42.8256 342.323 42.8872C342.257 42.9489 342.17 42.9993 342.13 42.9993C342.089 42.9993 342.056 43.0245 342.056 43.0554C342.056 43.0686 342.048 43.0807 342.034 43.0903C342.029 43.0942 342.022 43.0977 342.015 43.1007C342.012 43.102 342.008 43.1031 342.005 43.1042C341.991 43.1088 341.974 43.1114 341.956 43.1114C341.902 43.1114 341.82 43.1619 341.776 43.2235C341.732 43.2852 341.65 43.3356 341.596 43.3356C341.541 43.3356 341.496 43.3609 341.496 43.3917C341.496 43.4091 341.482 43.4247 341.459 43.435C341.442 43.443 341.42 43.4478 341.396 43.4478C341.342 43.4478 341.26 43.4982 341.216 43.5598C341.172 43.6215 341.09 43.6719 341.036 43.6719C340.981 43.6719 340.936 43.6972 340.936 43.728C340.936 43.7466 340.922 43.7632 340.901 43.7735C340.887 43.7801 340.87 43.7841 340.852 43.7841C340.806 43.7841 340.768 43.8093 340.768 43.8401C340.768 43.8709 340.73 43.8961 340.684 43.8961C340.638 43.8961 340.6 43.9166 340.6 43.9417C340.6 43.9668 340.512 44.022 340.404 44.0643C340.335 44.0915 340.274 44.1223 340.239 44.1463C340.219 44.1596 340.208 44.1708 340.208 44.1781C340.208 44.1983 340.088 44.2754 339.942 44.3495C339.796 44.4235 339.643 44.5157 339.602 44.5545C339.561 44.5932 339.479 44.6248 339.42 44.6248C339.361 44.6248 339.312 44.6501 339.312 44.6809C339.312 44.7117 339.279 44.7369 339.239 44.7369C339.198 44.7369 339.111 44.7874 339.045 44.8491C339.015 44.8767 338.982 44.9022 338.952 44.9218C338.94 44.9295 338.929 44.9363 338.918 44.942L338.908 44.9473L338.897 44.9522C338.89 44.9554 338.883 44.9578 338.877 44.9593C338.872 44.9605 338.868 44.9612 338.864 44.9612C338.847 44.9612 338.818 44.9741 338.785 44.9949L338.774 45.0018C338.768 45.0059 338.761 45.0102 338.755 45.0147L338.745 45.0221L338.734 45.0299C338.717 45.0432 338.7 45.0579 338.683 45.0732C338.63 45.1225 338.54 45.1845 338.462 45.227L338.447 45.2349L338.432 45.2423C338.423 45.2469 338.414 45.2512 338.406 45.255C338.319 45.2934 338.248 45.3438 338.248 45.3672C338.248 45.3905 338.215 45.4096 338.174 45.4096C338.134 45.4096 338.047 45.46 337.981 45.5217C337.915 45.5833 337.822 45.6338 337.774 45.6338C337.727 45.6338 337.688 45.659 337.688 45.6898C337.688 45.7019 337.683 45.7132 337.674 45.7224C337.661 45.7366 337.639 45.7459 337.614 45.7459C337.574 45.7459 337.487 45.7963 337.421 45.858C337.355 45.9196 337.262 45.9701 337.214 45.9701C337.167 45.9701 337.128 45.9922 337.128 46.0193C337.128 46.0379 337.092 46.069 337.04 46.0989C337.016 46.1127 336.989 46.1262 336.96 46.1382C336.868 46.1765 336.792 46.23 336.792 46.2572C336.792 46.2843 336.742 46.3064 336.68 46.3064C336.618 46.3064 336.568 46.3286 336.568 46.3556C336.568 46.3707 336.545 46.394 336.508 46.4183C336.497 46.4257 336.485 46.4331 336.471 46.4404C336.45 46.4524 336.425 46.4641 336.4 46.4746C336.308 46.5128 336.232 46.5663 336.232 46.5935C336.232 46.6206 336.205 46.6427 336.173 46.6427C336.141 46.6427 336.021 46.7058 335.908 46.7828C335.795 46.8599 335.657 46.923 335.603 46.923C335.549 46.923 335.504 46.9482 335.504 46.979C335.504 47.0099 335.471 47.0351 335.43 47.0351C335.39 47.0351 335.303 47.0855 335.237 47.1472C335.171 47.2089 335.078 47.2593 335.03 47.2593C334.983 47.2593 334.944 47.2845 334.944 47.3153C334.944 47.3462 334.899 47.3714 334.844 47.3714C334.79 47.3714 334.708 47.4218 334.664 47.4835C334.62 47.5452 334.538 47.5956 334.484 47.5956C334.429 47.5956 334.384 47.6208 334.384 47.6517C334.384 47.6825 334.345 47.7077 334.298 47.7077C334.25 47.7077 334.157 47.7581 334.091 47.8198C334.025 47.8815 333.938 47.9319 333.898 47.9319C333.88 47.9319 333.864 47.9355 333.851 47.9413C333.843 47.9453 333.836 47.9502 333.831 47.9559C333.827 47.9615 333.824 47.9677 333.824 47.9742C333.824 47.9977 333.742 48.053 333.642 48.0973C333.542 48.1417 333.411 48.2234 333.351 48.2792C333.292 48.3348 333.21 48.3803 333.169 48.3803C333.129 48.3803 333.096 48.4056 333.096 48.4364C333.096 48.4672 333.057 48.4925 333.01 48.4925C332.962 48.4925 332.869 48.5429 332.803 48.6046C332.737 48.6662 332.65 48.7166 332.609 48.7166C332.569 48.7166 332.536 48.7419 332.536 48.7727C332.536 48.8035 332.486 48.8288 332.424 48.8288C332.362 48.8288 332.312 48.8487 332.312 48.873C332.312 48.9287 331.741 49.2211 331.633 49.2211C331.589 49.2211 331.516 49.2716 331.472 49.3332C331.458 49.3533 331.44 49.3723 331.423 49.3886C331.386 49.4224 331.346 49.4453 331.32 49.4453C331.28 49.4453 331.248 49.4664 331.248 49.4919C331.248 49.5046 331.231 49.5249 331.203 49.5475C331.175 49.5705 331.137 49.5957 331.094 49.6177C331.009 49.6611 330.899 49.7411 330.849 49.7953C330.8 49.8495 330.734 49.8938 330.704 49.8938C330.673 49.8938 330.57 49.9694 330.473 50.0619C330.421 50.1115 330.363 50.1563 330.314 50.1871C330.271 50.2138 330.234 50.2301 330.213 50.2301C330.166 50.2301 330.128 50.2553 330.128 50.2861C330.128 50.3234 337.696 50.3422 352.721 50.3422C367.722 50.3422 375.325 50.361 375.348 50.3982C375.367 50.429 375.457 50.4543 375.547 50.4543C375.638 50.4543 375.712 50.4795 375.712 50.5103C375.712 50.5412 375.762 50.5664 375.824 50.5664C375.886 50.5664 375.936 50.5916 375.936 50.6224C375.936 50.6533 375.974 50.6785 376.021 50.6785C376.117 50.6785 376.72 51.2597 376.72 51.3522C376.72 51.3643 376.727 51.3827 376.738 51.4043C376.744 51.4151 376.751 51.4267 376.758 51.4387C376.77 51.4564 376.783 51.475 376.798 51.4933C376.808 51.5057 376.819 51.518 376.83 51.5298C376.89 51.5947 376.954 51.7513 376.972 51.8779C377.044 52.3868 376.975 83.767 376.902 83.7914C376.888 83.7962 376.874 83.8067 376.863 83.8207C376.844 83.8441 376.832 83.8771 376.832 83.9098C376.832 83.9621 376.782 84.0412 376.72 84.0857C376.69 84.107 376.663 84.1342 376.643 84.1612C376.622 84.1904 376.608 84.2195 376.608 84.2406C376.608 84.3369 376.355 84.5901 376.259 84.5901C376.218 84.5901 376.148 84.6406 376.104 84.7022C376.06 84.7639 375.981 84.8143 375.928 84.8143C375.876 84.8143 375.823 84.8459 375.81 84.8844C375.772 84.9996 326.64 84.986 326.39 84.8707C326.29 84.8247 326.208 84.7679 326.208 84.7445C326.208 84.7413 326.207 84.7382 326.206 84.7352C326.205 84.7328 326.203 84.7306 326.201 84.7284C326.198 84.7247 326.194 84.7213 326.189 84.7183C326.172 84.7085 326.147 84.7022 326.119 84.7022C326.012 84.7022 325.424 84.1028 325.424 83.994C325.424 83.952 325.399 83.9175 325.368 83.9175C325.337 83.9175 325.312 83.8686 325.312 83.8087C325.312 83.7489 325.287 83.6843 325.256 83.6653C325.249 83.6607 325.242 83.6521 325.235 83.6405C325.231 83.6327 325.227 83.6234 325.223 83.6131C325.22 83.6054 325.217 83.597 325.215 83.5882C325.206 83.5536 325.2 83.5114 325.2 83.4691C325.2 83.3802 325.175 83.292 325.144 83.2729C325.107 83.2499 325.088 77.7051 325.088 66.8202V50.402L324.922 50.2179C324.605 49.8667 324.472 49.6973 324.469 49.6415C324.468 49.6107 324.365 49.4972 324.241 49.3893C323.764 48.9745 323.238 48.4103 323.264 48.3415C323.28 48.302 323.273 48.2755 323.25 48.283C323.227 48.2902 323.007 48.0904 322.762 47.8387C322.16 47.2213 321.837 46.8669 321.877 46.8669C321.894 46.8669 321.742 46.7049 321.538 46.5069C321.335 46.3088 321.168 46.1091 321.168 46.0631C321.168 46.017 321.136 45.969 321.098 45.9561C320.906 45.8923 320.993 44.0228 321.197 43.8187C321.243 43.7731 321.28 43.7084 321.28 43.6745C321.28 43.5877 321.766 43.1114 321.854 43.1114C321.894 43.1114 321.964 43.061 322.008 42.9993C322.052 42.9377 322.11 42.8872 322.136 42.8872C322.152 42.8872 322.209 42.8583 322.281 42.8144C322.297 42.8046 322.314 42.794 322.332 42.7829C322.363 42.7632 322.395 42.7416 322.428 42.7191C322.562 42.6266 322.699 42.5509 322.732 42.5509C322.744 42.5509 322.755 42.5481 322.765 42.5433C322.77 42.5406 322.775 42.5371 322.779 42.5332C322.782 42.5304 322.785 42.5273 322.787 42.5241L322.788 42.5206C322.791 42.5158 322.792 42.5106 322.792 42.5052C322.792 42.4527 323.153 42.2706 323.257 42.2706C323.274 42.2706 323.297 42.261 323.32 42.2449C323.351 42.2243 323.383 42.1932 323.408 42.1585C323.452 42.0969 323.534 42.0464 323.588 42.0464C323.613 42.0464 323.636 42.0413 323.654 42.0327C323.675 42.0224 323.688 42.0072 323.688 41.9904C323.688 41.9596 323.721 41.9343 323.761 41.9343C323.802 41.9343 323.889 41.8839 323.955 41.8222C324.021 41.7606 324.103 41.7101 324.136 41.7101C324.169 41.7101 324.251 41.6597 324.317 41.598C324.383 41.5363 324.47 41.4859 324.51 41.4859C324.551 41.4859 324.584 41.4607 324.584 41.4299C324.584 41.399 324.636 41.3738 324.699 41.3738C324.722 41.3738 324.741 41.3706 324.755 41.3652C324.766 41.3611 324.774 41.3556 324.779 41.3492C324.786 41.3402 324.787 41.3294 324.78 41.3177C324.761 41.2869 324.785 41.2617 324.833 41.2617C324.867 41.2617 324.897 41.2489 324.911 41.2304C324.917 41.2229 324.92 41.2145 324.92 41.2057C324.92 41.1748 324.958 41.1496 325.004 41.1496C325.05 41.1496 325.088 41.1244 325.088 41.0935C325.088 41.0627 325.127 41.0375 325.174 41.0375C325.222 41.0375 325.315 40.9871 325.381 40.9254C325.447 40.8637 325.534 40.8133 325.575 40.8133C325.615 40.8133 325.648 40.7881 325.648 40.7572C325.648 40.7264 325.687 40.7012 325.734 40.7012C325.782 40.7012 325.875 40.6507 325.941 40.5891C326.007 40.5274 326.094 40.477 326.135 40.477C326.175 40.477 326.208 40.4518 326.208 40.4209C326.208 40.4169 326.209 40.4129 326.21 40.4091C326.212 40.4031 326.216 40.3974 326.22 40.3922C326.235 40.3759 326.263 40.3649 326.294 40.3649C326.342 40.3649 326.434 40.3152 326.499 40.2547C326.564 40.194 326.637 40.1568 326.661 40.1718C326.685 40.1868 326.73 40.1547 326.76 40.1003C326.791 40.0459 326.833 40.0186 326.854 40.0396C326.875 40.0606 326.944 40.029 327.009 39.9691C327.014 39.964 327.02 39.959 327.025 39.954C327.032 39.9484 327.039 39.943 327.045 39.9377C327.069 39.9188 327.095 39.9021 327.118 39.8891C327.15 39.8713 327.179 39.8604 327.198 39.8604C327.239 39.8604 327.272 39.8352 327.272 39.8044C327.272 39.7735 327.31 39.7483 327.356 39.7483C327.402 39.7483 327.44 39.7231 327.44 39.6922C327.44 39.6614 327.478 39.6362 327.524 39.6362C327.57 39.6362 327.608 39.611 327.608 39.5801C327.608 39.5493 327.647 39.5241 327.694 39.5241C327.742 39.5241 327.835 39.4736 327.901 39.412C327.967 39.3503 328.054 39.2999 328.094 39.2999C328.105 39.2999 328.115 39.2981 328.125 39.2949C328.136 39.2911 328.145 39.2854 328.152 39.2784C328.162 39.2688 328.168 39.2568 328.168 39.2438C328.168 39.2379 328.17 39.2323 328.173 39.227C328.178 39.2172 328.188 39.2086 328.202 39.2019C328.219 39.1931 328.242 39.1878 328.268 39.1878C328.322 39.1878 328.404 39.1373 328.448 39.0757C328.492 39.014 328.574 38.9636 328.628 38.9636C328.683 38.9636 328.728 38.9383 328.728 38.9075C328.728 38.8767 328.769 38.8514 328.819 38.8514C328.87 38.8514 328.952 38.8072 329.001 38.7529C329.051 38.6989 329.168 38.6169 329.26 38.5708C329.352 38.5248 329.477 38.443 329.536 38.389C329.565 38.3633 329.599 38.3397 329.63 38.3221C329.665 38.3029 329.697 38.2909 329.718 38.2909C329.74 38.2909 329.759 38.2849 329.772 38.2752C329.784 38.2663 329.792 38.2545 329.792 38.2415C329.792 38.2266 329.805 38.2091 329.826 38.1935C329.843 38.1804 329.865 38.1685 329.89 38.1607C330.002 38.1254 330.31 37.9449 330.352 37.8903C330.367 37.8704 330.525 37.7855 330.702 37.7015C330.879 37.6177 331.024 37.5239 331.024 37.4932C331.024 37.4623 331.074 37.4503 331.136 37.4664C331.155 37.4713 331.171 37.4738 331.186 37.4739C331.195 37.474 331.203 37.473 331.21 37.4711C331.218 37.4691 331.224 37.4661 331.229 37.4621C331.242 37.4526 331.248 37.4375 331.248 37.4169C331.248 37.3952 331.26 37.377 331.281 37.3636C331.307 37.3473 331.348 37.338 331.397 37.338C331.479 37.338 331.531 37.3225 331.512 37.3033C331.469 37.2608 331.609 37.1138 331.692 37.1138C331.713 37.1138 331.731 37.1041 331.742 37.0892C331.748 37.0802 331.752 37.0694 331.752 37.0578C331.752 37.0269 331.797 37.0017 331.852 37.0017C331.906 37.0017 331.988 36.9513 332.032 36.8896C332.076 36.828 332.158 36.7775 332.212 36.7775C332.267 36.7775 332.312 36.7523 332.312 36.7215C332.312 36.6906 332.345 36.6654 332.385 36.6654C332.426 36.6654 332.513 36.615 332.579 36.5533C332.645 36.4916 332.738 36.4412 332.786 36.4412C332.799 36.4412 332.812 36.4392 332.823 36.4357C332.828 36.4342 332.832 36.4325 332.836 36.4305C332.858 36.4203 332.872 36.4037 332.872 36.3852C332.872 36.3543 332.905 36.3291 332.945 36.3291C332.986 36.3291 333.073 36.2787 333.139 36.217C333.205 36.1553 333.298 36.1049 333.346 36.1049C333.393 36.1049 333.432 36.0828 333.432 36.0557C333.432 36.0285 333.508 35.975 333.6 35.9367C333.66 35.9117 333.714 35.8801 333.743 35.8536C333.749 35.8488 333.753 35.8441 333.757 35.8396C333.76 35.8362 333.762 35.8329 333.764 35.8298C333.765 35.8276 333.766 35.8255 333.767 35.8235C333.768 35.8214 333.768 35.8195 333.768 35.8177C333.768 35.8057 333.773 35.7946 333.783 35.786C333.794 35.7754 333.811 35.7686 333.829 35.7686C333.847 35.7686 333.883 35.7543 333.926 35.7316C333.965 35.7108 334.011 35.6831 334.053 35.6527C334.143 35.5889 334.216 35.5558 334.216 35.5793C334.216 35.5893 334.222 35.59 334.233 35.583C334.247 35.5738 334.268 35.5509 334.291 35.5184C334.333 35.4617 334.391 35.4303 334.421 35.4487C334.451 35.4672 334.511 35.4333 334.554 35.3733C334.597 35.3131 334.678 35.2641 334.732 35.2641C334.787 35.2641 334.832 35.2389 334.832 35.2081C334.832 35.1772 334.877 35.152 334.932 35.152C334.986 35.152 335.068 35.1016 335.112 35.0399C335.156 34.9782 335.238 34.9278 335.292 34.9278C335.347 34.9278 335.392 34.9026 335.392 34.8717C335.392 34.8555 335.401 34.8408 335.416 34.8305C335.429 34.8213 335.446 34.8157 335.466 34.8157C335.506 34.8157 335.593 34.7652 335.659 34.7036C335.725 34.6419 335.807 34.5915 335.84 34.5915C335.873 34.5915 335.955 34.541 336.021 34.4794C336.087 34.4177 336.174 34.3673 336.214 34.3673C336.255 34.3673 336.288 34.342 336.288 34.3112C336.288 34.2949 336.299 34.2801 336.315 34.2699L336.32 34.2673C336.323 34.2659 336.325 34.2646 336.328 34.2635C336.332 34.262 336.335 34.2607 336.339 34.2596C336.349 34.2567 336.36 34.2552 336.372 34.2552C336.418 34.2552 336.456 34.2299 336.456 34.1991C336.456 34.1812 336.469 34.1653 336.488 34.155C336.503 34.1475 336.521 34.1431 336.54 34.1431C336.559 34.1431 336.578 34.1385 336.592 34.131C336.611 34.1207 336.624 34.1048 336.624 34.087C336.624 34.0562 336.662 34.0309 336.708 34.0309C336.729 34.0309 336.749 34.0256 336.763 34.0169C336.781 34.0066 336.792 33.9916 336.792 33.9749C336.792 33.9441 336.831 33.9189 336.878 33.9189C336.926 33.9189 337.019 33.8684 337.085 33.8067C337.151 33.7451 337.238 33.6946 337.278 33.6946C337.319 33.6946 337.352 33.6694 337.352 33.6386C337.352 33.6078 337.391 33.5826 337.438 33.5826C337.486 33.5826 337.579 33.5321 337.645 33.4704C337.711 33.4088 337.798 33.3583 337.838 33.3583C337.879 33.3583 337.912 33.3302 337.912 33.2957C337.912 33.2608 337.961 33.2461 338.024 33.2625C338.092 33.2803 338.136 33.2642 338.136 33.2214C338.136 33.1449 338.574 32.9263 338.667 32.9566C338.681 32.9613 338.691 32.9619 338.695 32.9592C338.699 32.9559 338.697 32.9478 338.685 32.936C338.631 32.8826 338.779 32.7418 338.888 32.7418C338.936 32.7418 338.976 32.7165 338.976 32.6857C338.976 32.6693 338.987 32.6544 339.004 32.6442C339.019 32.6352 339.038 32.6296 339.06 32.6296C339.106 32.6296 339.144 32.6044 339.144 32.5736C339.144 32.5428 339.182 32.5175 339.228 32.5175C339.274 32.5175 339.312 32.4923 339.312 32.4615C339.312 32.4524 339.315 32.4438 339.321 32.4362C339.324 32.4326 339.328 32.4291 339.332 32.426C339.335 32.4235 339.338 32.4211 339.342 32.419C339.344 32.4177 339.347 32.4165 339.349 32.4154C339.356 32.4124 339.364 32.4099 339.372 32.4082C339.38 32.4064 339.389 32.4054 339.398 32.4054C339.446 32.4054 339.539 32.355 339.605 32.2933C339.671 32.2317 339.758 32.1812 339.799 32.1812C339.839 32.1812 339.872 32.156 339.872 32.1252C339.872 32.0944 339.917 32.0691 339.972 32.0691C340.026 32.0691 340.108 32.0187 340.152 31.957C340.196 31.8954 340.278 31.8449 340.332 31.8449C340.387 31.8449 340.432 31.8197 340.432 31.7888C340.432 31.758 340.473 31.7328 340.523 31.7328C340.544 31.7328 340.569 31.7256 340.596 31.7133C340.624 31.7001 340.654 31.6812 340.679 31.6593C340.689 31.6513 340.697 31.6429 340.705 31.6343C340.755 31.5802 340.872 31.4982 340.964 31.4521C341.056 31.4062 341.181 31.3243 341.24 31.2704C341.3 31.2164 341.382 31.1723 341.422 31.1723C341.444 31.1723 341.464 31.1658 341.478 31.1555C341.489 31.1468 341.496 31.1353 341.496 31.1228C341.496 31.0788 341.604 31.0316 341.739 31.0168C341.765 31.0139 341.82 30.9659 341.861 30.9098C341.901 30.8539 341.954 30.8269 341.976 30.8497C341.999 30.8726 342.053 30.841 342.096 30.7795C342.139 30.7181 342.223 30.6678 342.283 30.6678C342.305 30.6678 342.325 30.6645 342.342 30.6588C342.358 30.6535 342.371 30.646 342.38 30.6371C342.382 30.6349 342.384 30.6327 342.386 30.6304C342.39 30.6245 342.392 30.6183 342.392 30.6118C342.392 30.5809 342.437 30.5557 342.492 30.5557C342.546 30.5557 342.628 30.5053 342.672 30.4436C342.716 30.382 342.798 30.3315 342.852 30.3315C342.907 30.3315 342.952 30.3063 342.952 30.2755C342.952 30.2446 342.997 30.2194 343.052 30.2194C343.065 30.2194 343.08 30.2164 343.095 30.2111C343.101 30.2092 343.106 30.2069 343.112 30.2044C343.117 30.2021 343.122 30.1996 343.127 30.197C343.166 30.1765 343.206 30.1439 343.232 30.1073C343.254 30.0763 343.283 30.0482 343.31 30.0278C343.338 30.0077 343.365 29.9952 343.384 29.9952C343.424 29.9952 343.456 29.97 343.456 29.9391C343.456 29.9083 343.501 29.8831 343.556 29.8831C343.61 29.8831 343.692 29.8326 343.736 29.771C343.78 29.7093 343.862 29.6589 343.916 29.6589C343.971 29.6589 344.016 29.6337 344.016 29.6028C344.016 29.572 344.049 29.5468 344.089 29.5468C344.107 29.5468 344.134 29.5371 344.164 29.5211C344.202 29.5004 344.246 29.4693 344.283 29.4347C344.349 29.373 344.442 29.3226 344.49 29.3226C344.537 29.3226 344.576 29.2973 344.576 29.2665C344.576 29.2357 344.609 29.2104 344.65 29.2104C344.69 29.2104 344.777 29.16 344.843 29.0984C344.909 29.0367 345.002 28.9862 345.05 28.9862C345.097 28.9862 345.136 28.9641 345.136 28.9371C345.136 28.9099 345.212 28.8564 345.304 28.8181C345.396 28.7798 345.472 28.7292 345.472 28.7057C345.472 28.668 345.676 28.5893 345.713 28.6128C345.72 28.6179 345.787 28.5652 345.862 28.4958C345.936 28.4264 346.037 28.3697 346.086 28.3697C346.135 28.3697 346.212 28.3192 346.256 28.2576C346.282 28.2217 346.32 28.1897 346.358 28.1691C346.386 28.1543 346.413 28.1455 346.436 28.1455C346.458 28.1455 346.479 28.1414 346.496 28.1344C346.52 28.1242 346.536 28.1078 346.536 28.0894C346.536 28.0718 346.551 28.056 346.573 28.0457C346.58 28.0429 346.586 28.0406 346.593 28.0388C346.606 28.0353 346.62 28.0334 346.636 28.0334C346.69 28.0334 346.772 27.9829 346.816 27.9213C346.86 27.8596 346.942 27.8091 346.996 27.8091C347.021 27.8091 347.044 27.804 347.061 27.7955C347.083 27.7852 347.096 27.77 347.096 27.7531C347.096 27.7223 347.129 27.6971 347.169 27.6971C347.21 27.6971 347.297 27.6466 347.363 27.5849C347.429 27.5233 347.511 27.4728 347.544 27.4728C347.556 27.4728 347.573 27.4668 347.593 27.4563C347.611 27.4472 347.631 27.4348 347.652 27.4201C347.676 27.4028 347.702 27.3825 347.725 27.3607C347.764 27.3239 347.825 27.2798 347.886 27.2422C347.927 27.2168 347.968 27.1944 348.002 27.179C348.089 27.1406 348.16 27.0901 348.16 27.0667C348.16 27.0435 348.198 27.0244 348.244 27.0244C348.29 27.0244 348.328 26.9992 348.328 26.9684C348.328 26.9375 348.366 26.9123 348.412 26.9123C348.458 26.9123 348.496 26.8871 348.496 26.8563C348.496 26.8379 348.51 26.8214 348.531 26.8112C348.539 26.8073 348.549 26.8042 348.559 26.8023C348.566 26.8009 348.574 26.8002 348.582 26.8002C348.63 26.8002 348.723 26.7498 348.789 26.6881C348.855 26.6264 348.942 26.576 348.982 26.576C348.995 26.576 349.008 26.5734 349.018 26.5688C349.024 26.5662 349.03 26.5629 349.035 26.5591C349.039 26.5563 349.042 26.5533 349.044 26.55C349.052 26.5413 349.056 26.531 349.056 26.52C349.056 26.4891 349.106 26.4639 349.168 26.4639C349.23 26.4639 349.28 26.4404 349.28 26.4116C349.28 26.3638 349.507 26.2634 349.551 26.2913C349.552 26.2921 349.554 26.2922 349.557 26.2916C349.563 26.2899 349.571 26.2839 349.582 26.2746C349.586 26.271 349.59 26.2668 349.594 26.2622C349.601 26.2555 349.608 26.2478 349.615 26.2394C349.623 26.2295 349.632 26.2186 349.641 26.2069C349.679 26.1538 349.735 26.1256 349.765 26.144C349.795 26.1625 349.855 26.1286 349.898 26.0686C349.941 26.0085 350.011 25.9594 350.052 25.9594C350.094 25.9594 350.161 25.9279 350.202 25.8894C350.389 25.7114 350.52 25.6231 350.597 25.6231C350.643 25.6231 350.68 25.5979 350.68 25.567C350.68 25.5362 350.718 25.511 350.764 25.511C350.81 25.511 350.848 25.4858 350.848 25.455C350.848 25.4241 350.886 25.3989 350.932 25.3989C350.978 25.3989 351.016 25.3737 351.016 25.3429C351.016 25.3377 351.017 25.3326 351.019 25.3278C351.021 25.3234 351.024 25.3192 351.027 25.3153C351.032 25.3095 351.039 25.3043 351.047 25.3C351.062 25.2918 351.081 25.2868 351.102 25.2868C351.15 25.2868 351.243 25.2364 351.309 25.1747C351.375 25.113 351.462 25.0626 351.502 25.0626C351.543 25.0626 351.576 25.0374 351.576 25.0065C351.576 25.0046 351.576 25.0027 351.576 25.0009C351.577 24.9981 351.578 24.9955 351.579 24.9929C351.584 24.982 351.594 24.9723 351.609 24.965C351.627 24.956 351.65 24.9505 351.676 24.9505C351.73 24.9505 351.812 24.9 351.856 24.8384C351.9 24.7767 351.982 24.7263 352.036 24.7263C352.091 24.7263 352.136 24.701 352.136 24.6702C352.136 24.6394 352.177 24.6142 352.227 24.6142C352.278 24.6142 352.36 24.5681 352.409 24.5119C352.459 24.4555 352.582 24.3737 352.682 24.33C352.782 24.2863 352.864 24.2343 352.864 24.2145C352.864 24.1782 353.191 24.0081 353.271 24.0028C353.274 24.0026 353.278 24.0016 353.282 23.9999C353.287 23.9983 353.292 23.9958 353.297 23.9928C353.309 23.9867 353.322 23.9781 353.337 23.9675C353.367 23.9465 353.402 23.9178 353.436 23.8866C353.502 23.8244 353.597 23.7734 353.646 23.7734C353.695 23.7734 353.772 23.7229 353.816 23.6613C353.86 23.5996 353.942 23.5492 353.996 23.5492C354.051 23.5492 354.096 23.524 354.096 23.4931C354.096 23.4623 354.141 23.4371 354.196 23.4371C354.25 23.4371 354.332 23.3866 354.376 23.325C354.42 23.2633 354.502 23.2129 354.556 23.2129C354.611 23.2129 354.656 23.1877 354.656 23.1568C354.656 23.1518 354.657 23.1469 354.659 23.1422C354.663 23.1357 354.668 23.1295 354.675 23.1241C354.693 23.11 354.722 23.1008 354.756 23.1008C354.81 23.1008 354.892 23.0503 354.936 22.9886C354.98 22.927 355.049 22.8766 355.088 22.8766C355.128 22.8766 355.16 22.8513 355.16 22.8205C355.16 22.7897 355.199 22.7644 355.246 22.7644C355.294 22.7644 355.387 22.714 355.453 22.6523C355.519 22.5907 355.606 22.5402 355.646 22.5402C355.666 22.5402 355.684 22.5344 355.697 22.5249C355.705 22.5192 355.711 22.5122 355.715 22.5044C355.717 22.5014 355.718 22.4984 355.719 22.4952C355.72 22.4917 355.72 22.488 355.72 22.4842C355.72 22.4534 355.753 22.4281 355.794 22.4281C355.798 22.4281 355.802 22.4276 355.807 22.4265C355.834 22.4212 355.872 22.4025 355.91 22.3766C355.937 22.3591 355.963 22.3383 355.987 22.316C356.053 22.2544 356.146 22.2039 356.194 22.2039C356.241 22.2039 356.28 22.1818 356.28 22.1547C356.28 22.1276 356.356 22.074 356.448 22.0358C356.474 22.0251 356.498 22.0132 356.52 22.001C356.533 21.9938 356.545 21.9866 356.556 21.9794C356.565 21.9733 356.574 21.9673 356.581 21.9614C356.603 21.9439 356.616 21.9281 356.616 21.9168C356.616 21.8897 356.666 21.8676 356.728 21.8676C356.733 21.8676 356.739 21.8674 356.744 21.8671C356.751 21.8666 356.759 21.8657 356.766 21.8644C356.779 21.8623 356.79 21.8593 356.8 21.8554C356.824 21.8458 356.84 21.8314 356.84 21.8153C356.84 21.7711 357.064 21.6665 357.106 21.6912C357.114 21.6958 357.167 21.6528 357.224 21.5958C357.281 21.5387 357.407 21.4569 357.504 21.414C357.601 21.371 357.68 21.3167 357.68 21.2934C357.68 21.2701 357.725 21.251 357.78 21.251C357.834 21.251 357.916 21.2006 357.96 21.1389C358.004 21.0773 358.086 21.0268 358.14 21.0268C358.195 21.0268 358.24 21.0016 358.24 20.9708C358.24 20.9399 358.285 20.9147 358.34 20.9147C358.394 20.9147 358.476 20.8643 358.52 20.8026C358.564 20.741 358.634 20.6905 358.675 20.6905C358.715 20.6905 358.803 20.6401 358.869 20.5784C358.935 20.5168 359.022 20.4663 359.062 20.4663C359.103 20.4663 359.136 20.4411 359.136 20.4102C359.136 20.3794 359.175 20.3542 359.222 20.3542C359.27 20.3542 359.363 20.3037 359.429 20.2421C359.495 20.1804 359.62 20.0986 359.706 20.0603C359.723 20.0532 359.738 20.0457 359.753 20.0379C359.765 20.0312 359.778 20.0244 359.789 20.0176C359.834 19.9902 359.864 19.9634 359.864 19.9481C359.864 19.9248 359.902 19.9058 359.948 19.9058C359.994 19.9058 360.032 19.8806 360.032 19.8497C360.032 19.8189 360.07 19.7937 360.116 19.7937C360.162 19.7937 360.2 19.7684 360.2 19.7376C360.2 19.7068 360.25 19.6816 360.312 19.6816C360.374 19.6816 360.424 19.661 360.424 19.6359C360.424 19.5961 360.789 19.387 360.876 19.3769C360.894 19.375 360.952 19.3291 361.006 19.2752C361.03 19.2511 361.062 19.229 361.095 19.2119C361.136 19.1906 361.179 19.1771 361.212 19.1771C361.253 19.1771 361.289 19.1651 361.307 19.1474C361.315 19.1396 361.32 19.1306 361.32 19.121C361.32 19.1042 361.33 19.089 361.345 19.0787C361.358 19.0702 361.375 19.065 361.393 19.065C361.434 19.065 361.521 19.0145 361.587 18.9529C361.653 18.8912 361.735 18.8408 361.77 18.8408C361.804 18.8408 361.865 18.8092 361.906 18.7707C362.093 18.5928 362.224 18.5045 362.301 18.5045C362.323 18.5045 362.343 18.4986 362.358 18.489C362.374 18.4788 362.384 18.4644 362.384 18.4484C362.384 18.4176 362.422 18.3924 362.468 18.3924C362.514 18.3924 362.552 18.3671 362.552 18.3363C362.552 18.3055 362.59 18.2803 362.636 18.2803C362.656 18.2803 362.674 18.2755 362.689 18.2676C362.694 18.265 362.698 18.2621 362.702 18.2589C362.708 18.2538 362.713 18.248 362.716 18.2417C362.717 18.2392 362.718 18.2367 362.719 18.2341C362.72 18.2309 362.72 18.2276 362.72 18.2242C362.72 18.1934 362.77 18.1682 362.832 18.1682C362.894 18.1682 362.944 18.1446 362.944 18.1159ZM363.789 20.2673C363.817 20.2498 363.84 20.0856 363.84 19.9024C363.84 19.5445 363.815 19.5164 363.648 19.6849C363.589 19.7448 363.507 19.7937 363.466 19.7937C363.425 19.7937 363.392 19.8189 363.392 19.8497C363.392 19.8806 363.359 19.9058 363.318 19.9058C363.278 19.9058 363.191 19.9562 363.125 20.0179C363.059 20.0795 362.971 20.13 362.931 20.13C362.89 20.13 362.82 20.1804 362.776 20.2421C362.732 20.3037 362.656 20.3542 362.608 20.3542C362.56 20.3542 362.484 20.4046 362.44 20.4663C362.416 20.499 362.386 20.5284 362.356 20.549C362.33 20.5672 362.304 20.5784 362.285 20.5784C362.245 20.5784 362.157 20.6288 362.091 20.6905C362.025 20.7522 361.938 20.8026 361.898 20.8026C361.857 20.8026 361.824 20.8279 361.824 20.8587C361.824 20.8895 361.786 20.9147 361.74 20.9147C361.717 20.9147 361.696 20.9199 361.681 20.9283L361.677 20.9305C361.674 20.9322 361.672 20.9341 361.669 20.9361C361.666 20.9387 361.664 20.9414 361.662 20.9442C361.661 20.946 361.66 20.9478 361.659 20.9497C361.657 20.9534 361.656 20.9572 361.656 20.9612C361.656 20.9869 361.587 21.0434 361.502 21.0867C361.321 21.1791 361.046 21.362 360.94 21.4612C360.898 21.4998 360.827 21.5313 360.782 21.5313C360.736 21.5313 360.645 21.5818 360.579 21.6434C360.513 21.705 360.426 21.7555 360.385 21.7555C360.345 21.7555 360.312 21.7807 360.312 21.8116C360.312 21.8291 360.298 21.8448 360.275 21.8551C360.265 21.8595 360.254 21.8629 360.242 21.865C360.233 21.8667 360.223 21.8676 360.212 21.8676C360.158 21.8676 360.076 21.9181 360.032 21.9797C360.021 21.9954 360.007 22.0103 359.993 22.0238C359.978 22.0383 359.961 22.0512 359.945 22.0618C359.916 22.0804 359.887 22.0918 359.864 22.0918C359.816 22.0918 359.74 22.1423 359.696 22.2039C359.684 22.2207 359.67 22.2366 359.656 22.2509C359.638 22.2678 359.62 22.2824 359.603 22.2935C359.589 22.3025 359.575 22.3091 359.563 22.3128C359.556 22.3149 359.55 22.316 359.544 22.316C359.523 22.316 359.504 22.3232 359.491 22.3344C359.479 22.3444 359.472 22.3576 359.472 22.3721C359.472 22.4029 359.434 22.4281 359.388 22.4281C359.342 22.4281 359.304 22.4534 359.304 22.4842C359.304 22.515 359.266 22.5402 359.22 22.5402C359.174 22.5402 359.136 22.5655 359.136 22.5963C359.136 22.6271 359.103 22.6523 359.062 22.6523C359.022 22.6523 358.935 22.7028 358.869 22.7644C358.803 22.8261 358.715 22.8766 358.675 22.8766C358.634 22.8766 358.564 22.927 358.52 22.9886C358.476 23.0503 358.406 23.1008 358.365 23.1008C358.354 23.1008 358.338 23.1049 358.32 23.1122C358.308 23.1176 358.294 23.1245 358.279 23.1328C358.244 23.1532 358.205 23.1816 358.171 23.2129C358.105 23.2745 358.018 23.325 357.978 23.325C357.969 23.325 357.962 23.3259 357.954 23.3275C357.948 23.3289 357.942 23.3308 357.937 23.3333C357.924 23.3388 357.915 23.3467 357.909 23.356C357.906 23.3617 357.904 23.3678 357.904 23.3741C357.904 23.3818 357.898 23.3914 357.887 23.4023C357.883 23.4068 357.878 23.4116 357.872 23.4165C357.841 23.4415 357.792 23.4701 357.736 23.4931C357.644 23.5314 357.568 23.5849 357.568 23.6121C357.568 23.6391 357.518 23.6613 357.456 23.6613C357.394 23.6613 357.344 23.6861 357.344 23.7162C357.344 23.7465 357.281 23.7871 357.204 23.8065C357.127 23.8258 357.064 23.8598 357.064 23.8821C357.064 23.8922 357.05 23.9088 357.027 23.9279C357.019 23.9338 357.011 23.94 357.003 23.9463C356.997 23.9503 356.991 23.9543 356.985 23.9584C356.972 23.9671 356.958 23.9759 356.943 23.9845C356.933 23.9905 356.922 23.9964 356.911 24.0021C356.654 24.1352 356.504 24.2914 356.504 24.4249C356.504 24.4945 356.479 24.5671 356.448 24.5862C356.417 24.6052 356.392 24.7455 356.392 24.8978C356.392 25.0501 356.367 25.1747 356.336 25.1747C356.305 25.1747 356.28 25.3119 356.28 25.4796C356.28 25.6474 356.255 25.8002 356.224 25.8193C356.193 25.8383 356.168 25.9912 356.168 26.159C356.168 26.3267 356.143 26.4639 356.112 26.4639C356.081 26.4639 356.056 26.59 356.056 26.7442C356.056 26.8983 356.031 27.0244 356 27.0244C355.969 27.0244 355.944 27.174 355.944 27.3607C355.944 27.5475 355.919 27.6971 355.888 27.6971C355.857 27.6971 355.832 27.8358 355.832 28.0053C355.832 28.1749 355.807 28.3136 355.776 28.3136C355.745 28.3136 355.72 28.4397 355.72 28.5939C355.72 28.748 355.695 28.8741 355.664 28.8741C355.633 28.8741 355.608 29.0237 355.608 29.2104C355.608 29.3972 355.583 29.5468 355.552 29.5468C355.521 29.5468 355.496 29.6805 355.496 29.8438C355.496 29.9174 355.491 29.9904 355.482 30.0514C355.48 30.0655 355.477 30.079 355.475 30.0918C355.472 30.1065 355.469 30.1201 355.466 30.1325C355.457 30.1657 355.447 30.1898 355.437 30.2003C355.404 30.2331 355.376 30.3643 355.374 30.4918C355.372 30.6195 355.349 30.7239 355.321 30.7239C355.294 30.7239 355.272 30.8248 355.272 30.9481C355.272 31.0351 355.278 31.111 355.288 31.1481C355.292 31.1636 355.296 31.1723 355.301 31.1723C355.346 31.1723 355.568 31.0395 355.652 30.9621C355.662 30.9532 355.672 30.9446 355.683 30.9367C355.707 30.9194 355.732 30.9053 355.753 30.8979C355.763 30.8941 355.773 30.892 355.78 30.892C355.874 30.892 355.915 30.8716 356.025 30.769C356.084 30.7133 356.166 30.6678 356.206 30.6678C356.247 30.6678 356.28 30.6426 356.28 30.6118C356.28 30.5981 356.289 30.5855 356.304 30.5757C356.322 30.5635 356.349 30.5557 356.38 30.5557C356.434 30.5557 356.516 30.5053 356.56 30.4436C356.604 30.382 356.68 30.3315 356.728 30.3315C356.776 30.3315 356.852 30.2811 356.896 30.2194C356.94 30.1577 357.016 30.1073 357.064 30.1073C357.112 30.1073 357.188 30.0569 357.232 29.9952C357.276 29.9335 357.345 29.8831 357.384 29.8831C357.404 29.8831 357.421 29.877 357.434 29.8672L357.439 29.8633C357.441 29.8617 357.442 29.8601 357.444 29.8584C357.446 29.856 357.448 29.8534 357.449 29.8507L357.451 29.8474C357.454 29.8411 357.456 29.8342 357.456 29.827C357.456 29.7962 357.501 29.771 357.556 29.771C357.61 29.771 357.692 29.7205 357.736 29.6589C357.74 29.6534 357.744 29.6479 357.749 29.6427C357.754 29.6358 357.76 29.6291 357.767 29.6227C357.81 29.5787 357.866 29.5468 357.904 29.5468C357.93 29.5468 357.965 29.5317 357.998 29.508C358.025 29.4883 358.052 29.4626 358.072 29.4347C358.116 29.373 358.186 29.3226 358.227 29.3226C358.267 29.3226 358.355 29.2721 358.421 29.2104C358.487 29.1488 358.574 29.0984 358.614 29.0984C358.655 29.0984 358.688 29.0762 358.688 29.0492C358.688 29.022 358.764 28.9684 358.856 28.9302C358.948 28.8919 359.024 28.8384 359.024 28.8112C359.024 28.7842 359.063 28.7621 359.11 28.7621C359.132 28.7621 359.162 28.752 359.195 28.7355C359.235 28.7153 359.279 28.6852 359.315 28.6519C359.32 28.6467 359.326 28.6417 359.331 28.6369C359.347 28.6236 359.363 28.6116 359.377 28.6013C359.384 28.5969 359.39 28.5928 359.397 28.589C359.431 28.568 359.46 28.5586 359.473 28.5664C359.495 28.5801 359.558 28.5413 359.613 28.4805C359.668 28.4196 359.736 28.3697 359.763 28.3697C359.79 28.3697 359.867 28.3192 359.933 28.2576C359.999 28.1959 360.086 28.1455 360.127 28.1455C360.167 28.1455 360.2 28.1202 360.2 28.0894C360.2 28.074 360.209 28.06 360.225 28.0498C360.24 28.0396 360.261 28.0334 360.284 28.0334C360.298 28.0334 360.312 28.0309 360.324 28.0266C360.342 28.02 360.356 28.0091 360.363 27.9959C360.366 27.9901 360.368 27.9838 360.368 27.9773C360.368 27.9727 360.369 27.9683 360.37 27.964C360.374 27.9543 360.381 27.9455 360.392 27.9385C360.407 27.9279 360.428 27.9213 360.452 27.9213C360.498 27.9213 360.536 27.896 360.536 27.8652C360.536 27.8344 360.581 27.8091 360.636 27.8091C360.69 27.8091 360.772 27.7587 360.816 27.6971C360.86 27.6354 360.936 27.5849 360.984 27.5849C361.032 27.5849 361.108 27.5345 361.152 27.4728C361.171 27.4467 361.195 27.4226 361.221 27.4034C361.256 27.3775 361.292 27.3607 361.32 27.3607C361.368 27.3607 361.444 27.3103 361.488 27.2486C361.532 27.187 361.614 27.1365 361.668 27.1365C361.723 27.1365 361.768 27.1113 361.768 27.0805C361.768 27.0497 361.806 27.0244 361.852 27.0244C361.873 27.0244 361.891 27.0203 361.906 27.0134C361.913 27.01 361.919 27.006 361.924 27.0016C361.927 26.999 361.929 26.9963 361.931 26.9935C361.934 26.9886 361.936 26.9834 361.936 26.9779C361.936 26.9622 361.962 26.935 362.001 26.9062C362.026 26.8879 362.057 26.8688 362.09 26.8518C362.175 26.8079 362.293 26.7281 362.353 26.6741C362.378 26.6513 362.407 26.6303 362.435 26.6136C362.458 26.5999 362.481 26.5891 362.501 26.5827C362.507 26.5806 362.513 26.579 362.518 26.5779C362.524 26.5766 362.53 26.576 362.534 26.576C362.575 26.576 362.608 26.5525 362.608 26.5237C362.608 26.495 362.658 26.4555 362.72 26.4359C362.807 26.4083 362.832 26.3511 362.832 26.1798C362.832 26.0586 362.857 25.9594 362.888 25.9594C362.919 25.9594 362.944 25.8099 362.944 25.6231C362.944 25.4363 362.969 25.2868 363 25.2868C363.031 25.2868 363.056 25.1292 363.056 24.9258C363.056 24.7273 363.081 24.5492 363.112 24.5301C363.143 24.511 363.168 24.3582 363.168 24.1904C363.168 24.0227 363.193 23.8855 363.224 23.8855C363.256 23.8855 363.28 23.7173 363.28 23.4931C363.28 23.2689 363.304 23.1008 363.336 23.1008C363.367 23.1008 363.392 22.9512 363.392 22.7644C363.392 22.5776 363.417 22.4281 363.448 22.4281C363.48 22.4281 363.504 22.2693 363.504 22.0638C363.504 21.8582 363.528 21.6995 363.56 21.6995C363.591 21.6995 363.616 21.5515 363.616 21.3678C363.616 21.1855 363.642 21.0274 363.675 21.0166C363.707 21.0057 363.734 20.8406 363.735 20.648C363.736 20.4562 363.76 20.2848 363.789 20.2673ZM350.372 28.1865C350.376 28.1654 350.374 28.1442 350.367 28.1246C350.359 28.1039 350.349 28.0865 350.337 28.0726C350.33 28.0646 350.323 28.0577 350.316 28.0522C350.304 28.0429 350.292 28.0371 350.281 28.035C350.277 28.0341 350.272 28.0339 350.268 28.0343C350.26 28.0351 350.253 28.0382 350.247 28.0437C350.238 28.0525 350.232 28.0675 350.232 28.0894C350.232 28.1202 350.204 28.1455 350.171 28.1455C350.15 28.1455 350.105 28.1645 350.053 28.1933C350.021 28.2111 349.987 28.2327 349.954 28.2559C349.92 28.2807 349.885 28.301 349.854 28.315C349.834 28.3244 349.815 28.331 349.8 28.3342C349.789 28.3365 349.78 28.337 349.773 28.3353C349.769 28.3344 349.766 28.3329 349.764 28.3307C349.744 28.311 349.728 28.3244 349.728 28.3603C349.728 28.3963 349.69 28.4257 349.644 28.4257C349.598 28.4257 349.56 28.451 349.56 28.4818C349.56 28.5126 349.522 28.5378 349.476 28.5378C349.43 28.5378 349.392 28.563 349.392 28.5939C349.392 28.6247 349.347 28.6499 349.292 28.6499C349.238 28.6499 349.156 28.7004 349.112 28.7621C349.092 28.7899 349.067 28.8155 349.041 28.8352C349.011 28.859 348.98 28.8741 348.957 28.8741C348.917 28.8741 348.829 28.9246 348.763 28.9862C348.738 29.0094 348.71 29.031 348.683 29.0489C348.667 29.0598 348.65 29.0694 348.635 29.0771C348.626 29.0819 348.617 29.086 348.608 29.0893C348.593 29.0951 348.58 29.0984 348.57 29.0984C348.529 29.0984 348.496 29.1236 348.496 29.1544C348.496 29.1852 348.451 29.2104 348.396 29.2104C348.342 29.2104 348.26 29.2609 348.216 29.3226C348.172 29.3842 348.09 29.4347 348.036 29.4347C347.981 29.4347 347.936 29.4599 347.936 29.4907C347.936 29.5215 347.898 29.5468 347.852 29.5468C347.813 29.5468 347.781 29.5614 347.771 29.581C347.77 29.5835 347.769 29.586 347.768 29.5885C347.768 29.5901 347.768 29.5917 347.768 29.5933C347.768 29.6189 347.699 29.6757 347.614 29.7194C347.529 29.7633 347.411 29.8431 347.351 29.8971C347.292 29.951 347.21 29.9952 347.169 29.9952C347.129 29.9952 347.096 30.0204 347.096 30.0512C347.096 30.0821 347.057 30.1073 347.01 30.1073C346.962 30.1073 346.869 30.1577 346.803 30.2194C346.762 30.2581 346.712 30.2924 346.67 30.3126C346.66 30.3175 346.651 30.3216 346.642 30.3247C346.629 30.3291 346.618 30.3315 346.609 30.3315C346.596 30.3315 346.584 30.3337 346.573 30.3376C346.567 30.3398 346.562 30.3424 346.557 30.3455C346.544 30.3539 346.536 30.3653 346.536 30.3777C346.536 30.4033 346.385 30.4978 346.2 30.588C346.015 30.6782 345.864 30.7708 345.864 30.7939C345.864 30.817 345.823 30.836 345.773 30.836C345.722 30.836 345.64 30.8802 345.591 30.9345C345.541 30.9886 345.424 31.0704 345.332 31.1162C345.318 31.1231 345.304 31.1307 345.289 31.1389C345.268 31.151 345.246 31.1643 345.225 31.1782C345.163 31.2185 345.105 31.2638 345.073 31.298C345.049 31.3248 345.019 31.3492 344.991 31.3669C344.962 31.3852 344.935 31.3965 344.917 31.3965C344.881 31.3965 344.797 31.4469 344.731 31.5086C344.665 31.5703 344.578 31.6207 344.538 31.6207C344.497 31.6207 344.464 31.6459 344.464 31.6768C344.464 31.6849 344.461 31.6926 344.455 31.6996C344.451 31.7044 344.446 31.7089 344.44 31.7129C344.422 31.7251 344.395 31.7328 344.364 31.7328C344.31 31.7328 344.228 31.7833 344.184 31.8449C344.171 31.863 344.155 31.8801 344.137 31.8953C344.118 31.9114 344.098 31.9252 344.077 31.9357C344.071 31.9388 344.065 31.9417 344.059 31.9442C344.054 31.9463 344.049 31.9481 344.044 31.9497C344.03 31.9544 344.016 31.957 344.004 31.957C343.949 31.957 343.904 31.9792 343.904 32.0062C343.904 32.0334 343.828 32.0869 343.736 32.1252C343.644 32.1634 343.568 32.2169 343.568 32.2441C343.568 32.2593 343.555 32.273 343.535 32.282C343.519 32.2891 343.499 32.2933 343.477 32.2933C343.426 32.2933 343.344 32.3375 343.294 32.3914C343.244 32.4454 343.128 32.5318 343.036 32.5836C342.916 32.6508 342.863 32.7269 342.851 32.8498C342.841 32.9445 342.812 33.022 342.786 33.022C342.76 33.022 342.724 33.1544 342.707 33.3163C342.638 33.9641 342.603 34.1735 342.555 34.2243C342.527 34.2536 342.504 34.3845 342.504 34.5153C342.504 34.646 342.479 34.7686 342.448 34.7877C342.439 34.7931 342.431 34.8076 342.423 34.8286C342.417 34.8472 342.411 34.871 342.406 34.8983C342.397 34.9476 342.392 35.0085 342.392 35.0713C342.392 35.2082 342.367 35.3202 342.336 35.3202C342.305 35.3202 342.28 35.4573 342.28 35.6251C342.28 35.7928 342.255 35.9457 342.224 35.9648C342.193 35.9838 342.168 36.122 342.168 36.2716C342.168 36.4297 342.141 36.5532 342.102 36.5658C342.063 36.5791 342.041 36.6916 342.047 36.8508C342.052 36.9968 342.032 37.1138 342 37.1138C341.969 37.1138 341.944 37.2384 341.944 37.3907C341.944 37.5431 341.919 37.6833 341.888 37.7024C341.857 37.7214 341.832 37.8617 341.832 38.014C341.832 38.1664 341.807 38.2909 341.776 38.2909C341.745 38.2909 341.72 38.4171 341.72 38.5712C341.72 38.7253 341.695 38.8514 341.664 38.8514C341.633 38.8514 341.608 38.9776 341.608 39.1317C341.608 39.2859 341.583 39.412 341.552 39.412C341.521 39.412 341.496 39.4624 341.496 39.5241C341.496 39.5857 341.521 39.6362 341.552 39.6362C341.583 39.6362 341.608 39.611 341.608 39.5801C341.608 39.5493 341.653 39.5241 341.708 39.5241C341.762 39.5241 341.844 39.4736 341.888 39.412C341.932 39.3503 342.002 39.2999 342.043 39.2999C342.083 39.2999 342.171 39.2494 342.237 39.1878C342.303 39.1261 342.39 39.0757 342.43 39.0757C342.471 39.0757 342.504 39.0504 342.504 39.0196C342.504 38.9888 342.549 38.9636 342.604 38.9636C342.636 38.9636 342.679 38.9456 342.717 38.9179C342.742 38.8993 342.766 38.8763 342.784 38.8514C342.828 38.7898 342.91 38.7393 342.964 38.7393C342.985 38.7393 343.004 38.7359 343.02 38.7299C343.035 38.7239 343.048 38.7155 343.056 38.7055C343.057 38.7041 343.058 38.7026 343.059 38.7011L343.061 38.6975C343.063 38.693 343.064 38.6882 343.064 38.6833C343.064 38.6525 343.102 38.6272 343.148 38.6272C343.194 38.6272 343.232 38.6062 343.232 38.5807C343.232 38.5551 343.301 38.4983 343.386 38.4546C343.471 38.4107 343.589 38.3309 343.648 38.2769C343.708 38.223 343.79 38.1788 343.83 38.1788C343.833 38.1788 343.836 38.1787 343.839 38.1785L343.846 38.1775C343.85 38.1768 343.854 38.1759 343.858 38.1748C343.874 38.1699 343.887 38.1606 343.895 38.149C343.901 38.1412 343.904 38.1322 343.904 38.1228C343.904 38.0919 343.942 38.0667 343.987 38.0667C344.033 38.0667 344.122 38.0226 344.185 37.9686C344.211 37.9463 344.239 37.9256 344.264 37.9091C344.283 37.8966 344.3 37.8864 344.315 37.8797C344.327 37.8738 344.337 37.8705 344.344 37.8705C344.368 37.8705 344.432 37.8264 344.486 37.7725C344.54 37.7185 344.633 37.6743 344.692 37.6743C344.751 37.6743 344.8 37.6491 344.8 37.6183C344.8 37.606 344.807 37.5945 344.819 37.5853C344.826 37.5798 344.835 37.5751 344.845 37.5714C344.861 37.5656 344.88 37.5623 344.9 37.5623C344.954 37.5623 345.036 37.5118 345.08 37.4501C345.124 37.3885 345.196 37.338 345.24 37.338C345.283 37.338 345.36 37.2938 345.409 37.2395C345.459 37.1854 345.576 37.1036 345.668 37.0578C345.71 37.0372 345.756 37.0093 345.799 36.9799C345.852 36.944 345.899 36.9058 345.927 36.876C345.976 36.8218 346.047 36.7775 346.083 36.7775C346.119 36.7775 346.203 36.7271 346.269 36.6654C346.335 36.6038 346.422 36.5533 346.463 36.5533C346.503 36.5533 346.536 36.5281 346.536 36.4973C346.536 36.4664 346.581 36.4412 346.636 36.4412C346.69 36.4412 346.772 36.3907 346.816 36.3291C346.86 36.2675 346.93 36.217 346.971 36.217C347.011 36.217 347.099 36.1665 347.165 36.1049C347.202 36.0703 347.246 36.0393 347.284 36.0187C347.314 36.0026 347.341 35.9928 347.359 35.9928C347.382 35.9928 347.403 35.9841 347.417 35.9706C347.423 35.965 347.427 35.9585 347.429 35.9515C347.431 35.9468 347.432 35.9418 347.432 35.9367C347.432 35.9234 347.441 35.9112 347.457 35.9015C347.464 35.897 347.473 35.8931 347.483 35.89C347.489 35.8878 347.496 35.886 347.503 35.8845C347.509 35.8835 347.514 35.8827 347.519 35.882C347.527 35.8811 347.536 35.8807 347.544 35.8807C347.606 35.8807 347.656 35.8609 347.656 35.8367C347.656 35.7899 347.944 35.6045 347.993 35.6195C348.01 35.6244 348.083 35.5717 348.158 35.5023C348.204 35.4591 348.261 35.4207 348.309 35.398C348.317 35.3942 348.325 35.3909 348.332 35.388C348.339 35.3854 348.345 35.3832 348.351 35.3814L348.358 35.3796C348.367 35.3774 348.375 35.3762 348.382 35.3762C348.431 35.3762 348.508 35.3258 348.552 35.2641C348.596 35.2025 348.678 35.152 348.732 35.152C348.787 35.152 348.832 35.1268 348.832 35.0959C348.832 35.081 348.84 35.0674 348.854 35.0573C348.868 35.0466 348.888 35.0399 348.91 35.0399C349.004 35.0399 349.056 34.9193 349.056 34.7023C349.056 34.6142 349.081 34.5265 349.112 34.5074C349.116 34.5048 349.12 34.5002 349.124 34.494C349.126 34.4911 349.128 34.4878 349.13 34.4842L349.133 34.4761L349.135 34.4726C349.14 34.4587 349.145 34.4414 349.149 34.4216C349.151 34.4164 349.152 34.411 349.153 34.4055L349.154 34.3961C349.156 34.3838 349.158 34.3708 349.16 34.3572C349.162 34.3427 349.164 34.3275 349.165 34.3119C349.167 34.2847 349.168 34.2561 349.168 34.2271C349.168 34.092 349.193 33.9659 349.224 33.9469C349.238 33.9382 349.251 33.9072 349.261 33.8633C349.273 33.8109 349.28 33.7401 349.28 33.6666C349.28 33.5315 349.305 33.4054 349.336 33.3864C349.367 33.3673 349.392 33.2396 349.392 33.1027C349.392 32.9658 349.417 32.8539 349.448 32.8539C349.479 32.8539 349.504 32.7167 349.504 32.5489C349.504 32.3812 349.529 32.2283 349.56 32.2093C349.591 32.1902 349.616 32.0499 349.616 31.8976C349.616 31.7453 349.641 31.6207 349.672 31.6207C349.703 31.6207 349.728 31.4946 349.728 31.3405C349.728 31.1863 349.753 31.0602 349.784 31.0602C349.815 31.0602 349.84 30.9467 349.84 30.808C349.84 30.6692 349.865 30.5557 349.896 30.5557C349.927 30.5557 349.952 30.4185 349.952 30.2508C349.952 30.083 349.977 29.9302 350.008 29.9111C350.039 29.8921 350.064 29.7518 350.064 29.5995C350.064 29.4471 350.089 29.3226 350.12 29.3226C350.151 29.3226 350.176 29.1964 350.176 29.0423C350.176 28.8848 350.202 28.7621 350.234 28.7621C350.272 28.7621 350.279 28.6868 350.255 28.5569C350.225 28.3991 350.238 28.336 350.309 28.2838C350.343 28.2585 350.366 28.2228 350.372 28.1865ZM336.058 37.099C336.062 37.0674 336.064 37.0331 336.064 36.9984C336.064 36.7524 336.03 36.7336 335.872 36.893C335.813 36.9528 335.731 37.0017 335.69 37.0017C335.649 37.0017 335.616 37.0253 335.616 37.054C335.616 37.0827 335.566 37.1223 335.504 37.1417C335.443 37.1612 335.36 37.2072 335.321 37.2436C335.214 37.3414 334.938 37.5031 334.762 37.5704C334.72 37.5865 334.681 37.6068 334.654 37.6266C334.625 37.6465 334.608 37.6659 334.608 37.6798C334.608 37.7077 334.563 37.7304 334.508 37.7304C334.454 37.7304 334.372 37.7809 334.328 37.8425C334.284 37.9042 334.212 37.9546 334.168 37.9546C334.125 37.9546 334.048 37.9989 333.999 38.0531C333.949 38.1072 333.832 38.1891 333.74 38.2349C333.648 38.2807 333.531 38.3625 333.481 38.4166C333.432 38.4709 333.35 38.5151 333.299 38.5151C333.249 38.5151 333.208 38.5362 333.208 38.5617C333.208 38.5873 333.139 38.6441 333.054 38.6878C333.007 38.7121 332.95 38.7475 332.898 38.7835C332.876 38.7987 332.855 38.814 332.836 38.8286C332.819 38.8416 332.804 38.8541 332.791 38.8655C332.732 38.9194 332.65 38.9636 332.609 38.9636C332.59 38.9636 332.572 38.9695 332.559 38.979C332.545 38.9893 332.536 39.0037 332.536 39.0196C332.536 39.0431 332.507 39.0633 332.466 39.0716C332.453 39.0742 332.439 39.0757 332.424 39.0757C332.408 39.0757 332.392 39.0776 332.378 39.081C332.372 39.0826 332.367 39.0844 332.361 39.0864C332.357 39.0881 332.353 39.0899 332.349 39.0918C332.333 39.0997 332.321 39.1101 332.316 39.1219C332.313 39.1269 332.312 39.1322 332.312 39.1377C332.312 39.1718 332.275 39.1858 332.231 39.1686C332.177 39.1478 332.16 39.1644 332.181 39.2186C332.201 39.2719 332.176 39.2999 332.106 39.2999C332.048 39.2999 331.964 39.3503 331.92 39.412C331.876 39.4736 331.796 39.5241 331.744 39.5241C331.692 39.5241 331.641 39.543 331.631 39.5661C331.601 39.6327 331.286 39.8408 331.149 39.8844C331.08 39.9061 331.024 39.9475 331.024 39.9763C331.024 40.005 330.979 40.0286 330.924 40.0286C330.87 40.0286 330.788 40.079 330.744 40.1407C330.7 40.2023 330.624 40.2527 330.576 40.2527C330.528 40.2527 330.452 40.3032 330.408 40.3649C330.382 40.4007 330.344 40.4327 330.306 40.4533C330.278 40.4681 330.251 40.477 330.228 40.477C330.195 40.477 330.166 40.4858 330.148 40.4995C330.141 40.5045 330.136 40.5102 330.132 40.5164C330.131 40.5187 330.13 40.5211 330.129 40.5235C330.128 40.5266 330.128 40.5298 330.128 40.533C330.128 40.5638 330.095 40.5891 330.054 40.5891C330.014 40.5891 329.927 40.6395 329.861 40.7012C329.795 40.7628 329.707 40.8133 329.667 40.8133C329.626 40.8133 329.556 40.8637 329.512 40.9254C329.468 40.9871 329.392 41.0375 329.344 41.0375C329.296 41.0375 329.22 41.088 329.176 41.1496C329.132 41.2112 329.075 41.2617 329.051 41.2617C328.884 41.2617 328.617 41.5266 328.617 41.6927C328.616 41.7911 328.591 41.8872 328.56 41.9063C328.529 41.9254 328.504 42.0641 328.504 42.2146C328.504 42.3651 328.479 42.5038 328.448 42.5229C328.417 42.5419 328.392 42.6801 328.392 42.8298C328.392 42.9873 328.364 43.1113 328.327 43.1239C328.286 43.1374 328.265 43.2558 328.272 43.433C328.277 43.5909 328.256 43.7361 328.225 43.7555C328.194 43.7748 328.168 43.9103 328.168 44.0565C328.168 44.2026 328.139 44.3516 328.103 44.3875C328.067 44.4233 328.042 44.5594 328.047 44.6896C328.052 44.8203 328.027 44.9448 327.99 44.9672C327.95 44.9921 327.929 45.1288 327.937 45.3209C327.945 45.5103 327.927 45.6338 327.891 45.6338C327.858 45.6338 327.832 45.6947 327.832 45.7693C327.832 45.8437 327.8 45.9174 327.762 45.933C327.743 45.9406 327.73 45.9465 327.724 45.951C327.719 45.9548 327.719 45.9577 327.723 45.9599C327.729 45.9626 327.742 45.9643 327.762 45.9656C327.844 45.9709 327.858 46.1943 327.776 46.1943C327.745 46.1943 327.72 46.333 327.72 46.5026C327.72 46.6721 327.695 46.8109 327.664 46.8109C327.633 46.8109 327.608 46.9604 327.608 47.1472C327.608 47.334 327.583 47.4835 327.552 47.4835C327.545 47.4835 327.538 47.4905 327.531 47.5033C327.526 47.5133 327.522 47.5268 327.518 47.5432C327.504 47.5947 327.496 47.6745 327.496 47.7638C327.496 47.9179 327.471 48.044 327.44 48.044C327.409 48.044 327.386 48.1512 327.388 48.2823C327.391 48.4133 327.406 48.489 327.421 48.4504C327.437 48.4119 327.485 48.3803 327.529 48.3803C327.572 48.3803 327.608 48.3551 327.608 48.3243C327.608 48.3182 327.61 48.3124 327.613 48.307C327.616 48.3017 327.62 48.2967 327.626 48.2922C327.633 48.2863 327.643 48.2812 327.654 48.2772C327.658 48.2756 327.663 48.2741 327.668 48.2729C327.672 48.2719 327.676 48.2711 327.68 48.2704C327.689 48.269 327.698 48.2682 327.708 48.2682C327.762 48.2682 327.844 48.2178 327.888 48.1561C327.932 48.0945 328.008 48.044 328.056 48.044C328.092 48.044 328.143 48.0161 328.185 47.9764C328.199 47.9628 328.213 47.9477 328.224 47.9319C328.268 47.8703 328.338 47.8198 328.379 47.8198C328.419 47.8198 328.507 47.7694 328.573 47.7077C328.639 47.6461 328.726 47.5956 328.766 47.5956C328.778 47.5956 328.789 47.5935 328.799 47.5897C328.804 47.5881 328.808 47.5861 328.811 47.5839C328.829 47.5736 328.84 47.5575 328.84 47.5396C328.84 47.5087 328.873 47.4835 328.914 47.4835C328.954 47.4835 329.041 47.433 329.107 47.3714C329.125 47.355 329.143 47.3394 329.16 47.3254L329.177 47.3121L329.185 47.3056C329.195 47.2981 329.205 47.2913 329.214 47.2854C329.238 47.2691 329.258 47.2593 329.267 47.2593C329.279 47.2593 329.303 47.2482 329.329 47.2309C329.341 47.2235 329.353 47.2149 329.365 47.2055C329.375 47.1974 329.386 47.1887 329.396 47.1797C329.424 47.1542 329.462 47.1287 329.498 47.1098C329.524 47.0961 329.549 47.0858 329.568 47.0816C329.59 47.0767 329.618 47.0622 329.645 47.0425C329.675 47.021 329.704 46.9932 329.725 46.965C329.765 46.9111 329.836 46.8669 329.881 46.8669C329.892 46.8669 329.906 46.8641 329.921 46.859C329.937 46.8536 329.955 46.8454 329.973 46.8353C330.011 46.8149 330.051 46.7863 330.085 46.7548C330.151 46.6932 330.238 46.6427 330.278 46.6427C330.319 46.6427 330.352 46.6175 330.352 46.5867C330.352 46.5558 330.397 46.5306 330.452 46.5306C330.506 46.5306 330.588 46.4802 330.632 46.4185C330.676 46.3568 330.752 46.3064 330.8 46.3064C330.848 46.3064 330.924 46.256 330.968 46.1943C331.012 46.1327 331.088 46.0822 331.136 46.0822C331.184 46.0822 331.26 46.0317 331.304 45.9701C331.348 45.9084 331.417 45.858 331.456 45.858C331.521 45.858 331.658 45.7628 331.838 45.5917C331.879 45.5532 331.952 45.5217 332 45.5217C332.048 45.5217 332.088 45.5006 332.088 45.4752C332.088 45.4495 332.157 45.3928 332.242 45.349C332.327 45.3052 332.445 45.2253 332.505 45.1714C332.531 45.1471 332.563 45.1249 332.593 45.1077C332.616 45.0943 332.639 45.084 332.658 45.0783C332.661 45.0772 332.665 45.0762 332.669 45.0754C332.675 45.074 332.681 45.0732 332.687 45.0732C332.727 45.0732 332.76 45.0511 332.76 45.0241C332.76 45.0126 332.773 44.9964 332.796 44.9786C332.815 44.9641 332.839 44.9486 332.867 44.9337C332.886 44.9237 332.906 44.914 332.928 44.9051C333.02 44.8669 333.096 44.8106 333.096 44.7802C333.096 44.7498 333.13 44.7381 333.172 44.754C333.213 44.77 333.289 44.735 333.339 44.676C333.39 44.617 333.476 44.5688 333.531 44.5688C333.545 44.5688 333.561 44.5656 333.577 44.5598C333.592 44.5542 333.608 44.5464 333.624 44.5367C333.657 44.5164 333.689 44.488 333.712 44.4567C333.756 44.395 333.825 44.3446 333.864 44.3446C333.904 44.3446 333.936 44.3194 333.936 44.2885C333.936 44.2577 333.974 44.2325 334.02 44.2325C334.066 44.2325 334.104 44.2072 334.104 44.1764C334.104 44.1698 334.106 44.1635 334.109 44.1576C334.111 44.1544 334.113 44.1513 334.115 44.1484C334.13 44.1317 334.157 44.1204 334.188 44.1204C334.234 44.1204 334.272 44.0952 334.272 44.0643C334.272 44.0335 334.305 44.0083 334.346 44.0083C334.386 44.0083 334.473 43.9578 334.539 43.8961C334.605 43.8345 334.698 43.7841 334.746 43.7841C334.807 43.7841 334.832 43.7276 334.832 43.5912C334.832 43.5302 334.84 43.4702 334.853 43.4268C334.863 43.3948 334.875 43.3717 334.888 43.3636C334.919 43.3446 334.944 43.2043 334.944 43.052C334.944 42.8997 334.969 42.7751 335 42.7751C335.031 42.7751 335.056 42.6364 335.056 42.4668C335.056 42.2973 335.081 42.1585 335.112 42.1585C335.143 42.1585 335.168 42.0324 335.168 41.8783C335.168 41.8466 335.169 41.8162 335.171 41.7878C335.173 41.7637 335.175 41.7411 335.178 41.7205C335.188 41.6467 335.205 41.598 335.224 41.598C335.255 41.598 335.28 41.4485 335.28 41.2617C335.28 41.0749 335.305 40.9254 335.336 40.9254C335.367 40.9254 335.392 40.7867 335.392 40.6171C335.392 40.4475 335.417 40.3088 335.448 40.3088C335.479 40.3088 335.504 40.1827 335.504 40.0286C335.504 39.8744 335.529 39.7483 335.56 39.7483C335.591 39.7483 335.616 39.5988 335.616 39.412C335.616 39.2252 335.641 39.0757 335.672 39.0757C335.703 39.0757 335.728 38.9496 335.728 38.7954C335.728 38.6413 335.753 38.5151 335.784 38.5151C335.815 38.5151 335.84 38.378 335.84 38.2102C335.84 38.1481 335.843 38.0881 335.849 38.0361C335.859 37.9476 335.877 37.8825 335.896 37.8705C335.927 37.8515 335.952 37.7127 335.952 37.5623C335.952 37.4117 335.977 37.273 336.008 37.254C336.011 37.2523 336.013 37.2499 336.016 37.2469C336.018 37.2441 336.02 37.2409 336.023 37.2371C336.03 37.224 336.037 37.2049 336.044 37.1815C336.05 37.1578 336.055 37.1296 336.058 37.099ZM343.447 52.2554C343.514 52.1978 343.568 52.1347 343.568 52.1152C343.568 52.0958 341.734 52.0798 339.492 52.0798H335.415L332.292 55.2047L329.168 58.3296L333.291 58.3441L337.414 58.3583L338.027 57.7352C338.364 57.3926 338.64 57.0898 338.64 57.0623C338.64 57.0512 338.646 57.0409 338.657 57.0326C338.673 57.0204 338.699 57.0124 338.727 57.0124C338.751 57.0124 338.769 57.0079 338.781 57.0007C338.794 56.993 338.798 56.9823 338.792 56.9704C338.761 56.9149 339.348 56.3382 339.391 56.3813C339.409 56.3996 339.424 56.3724 339.424 56.3211C339.424 56.2697 339.447 56.2277 339.476 56.2277C339.547 56.2277 340.936 54.8423 340.936 54.7714C340.936 54.74 340.978 54.7143 341.029 54.7143C341.081 54.7143 341.108 54.6992 341.089 54.681C341.046 54.638 341.623 54.0509 341.678 54.0813C341.701 54.0939 341.72 54.065 341.72 54.017C341.72 53.9689 341.744 53.9295 341.772 53.9295C341.801 53.9295 342.179 53.5764 342.612 53.1448C343.045 52.7132 343.383 52.36 343.363 52.36C343.343 52.36 343.381 52.313 343.447 52.2554ZM357.176 53.8198C357.176 53.7698 358.219 52.7041 358.646 52.318L358.909 52.0798L354.697 52.0869L350.484 52.0939L347.88 54.7172C346.448 56.1601 345.246 57.3311 345.209 57.3194C345.172 57.3078 345.154 57.3305 345.169 57.3697C345.184 57.409 344.98 57.6473 344.716 57.8993L344.236 58.3576H348.382C352.466 58.3576 352.528 58.356 352.597 58.2455C352.635 58.1839 352.703 58.1335 352.747 58.1335C352.791 58.1335 352.812 58.1184 352.793 58.1001C352.757 58.0635 354.01 56.8039 354.796 56.0875C355.066 55.8409 355.647 55.2816 356.087 54.8448C356.526 54.4079 356.901 54.0653 356.919 54.0834C356.926 54.0905 356.933 54.0909 356.938 54.0858C356.94 54.0838 356.942 54.081 356.944 54.0774C356.946 54.0735 356.947 54.0686 356.949 54.0629C356.949 54.059 356.95 54.0547 356.951 54.0501C356.952 54.0431 356.952 54.0353 356.952 54.0268C356.952 53.9774 357.002 53.9211 357.064 53.9015C357.126 53.8819 357.176 53.8452 357.176 53.8198ZM373.626 52.2146C373.664 52.1758 373.696 52.1294 373.696 52.1119C373.696 52.0942 371.875 52.0818 369.65 52.0841L365.604 52.0886L362.478 55.2231L359.352 58.3576H363.53H367.708L368.322 57.7393C368.66 57.3992 368.936 57.0965 368.936 57.0666C368.936 57.0368 368.978 57.0124 369.029 57.0124C369.052 57.0124 369.07 57.0095 369.081 57.0046C369.096 56.9985 369.1 56.9893 369.089 56.9792C369.071 56.961 369.212 56.7864 369.402 56.5912C369.592 56.3961 370.151 55.8151 370.644 55.3001C371.137 54.7852 371.65 54.2597 371.784 54.1326C372.374 53.573 373.072 52.863 373.304 52.5861C373.443 52.4207 373.588 52.2536 373.626 52.2146ZM373.248 82.292V72.1185V61.945H351.156H329.064V72.1185V82.292H351.156H373.248Z" fill="#D81F26"/>
</svg>
