<svg width="536" height="758" viewBox="0 0 536 758" fill="none" xmlns="http://www.w3.org/2000/svg">
<path d="M300.596 29.6764C296.296 31.0351 292.806 33.6094 288.505 38.6866C281.836 46.4096 279.967 54.7762 281.712 68.7205L282.522 75.2994L280.403 77.3732C274.544 83.1655 272.737 85.4538 271.241 89.2438C269.87 92.6762 269.558 94.3209 269.62 99.3981C269.62 105.977 270.68 109.838 273.983 114.844C277.411 119.921 284.392 123.711 290.437 123.711C293.865 123.711 299.537 121.781 302.217 119.707C305.146 117.49 306.019 115.059 306.019 108.909C306.019 106.406 306.393 103.331 306.891 102.044C307.826 99.3981 312.999 93.8204 315.056 93.2483C317.237 92.6047 321.787 93.2483 322.036 94.1779C322.223 94.6785 320.727 96.1802 318.858 97.6104C315.243 100.256 313.872 102.401 313.186 106.621C311.877 114.558 318.546 121.995 325.34 120.207C332.445 118.348 335.312 113.771 335.312 104.475V98.7545L340.173 98.8975C344.473 99.0405 345.408 98.826 349.148 96.6807C357.063 92.2472 360.18 86.0258 359.307 76.3721C358.808 69.9362 357.749 66.9328 354.757 63.4288C351.142 59.0668 347.029 56.993 341.233 56.5639L336.247 56.1349L334.875 51.6298C331.759 41.1179 323.844 32.1792 315.554 29.6764C311.129 28.3892 304.897 28.3892 300.596 29.6764Z" fill="#FFF9F9"/>
<path d="M187.288 42.8341C185.917 43.5492 182.863 46.4811 180.557 49.3415L176.319 54.5617L174.013 52.9885C164.29 46.2666 156.562 44.9794 148.148 48.6264C144.034 50.4141 138.051 56.2779 135.683 60.9975C128.64 74.7989 132.94 93.1053 145.032 100.971C146.839 102.187 148.46 103.403 148.647 103.76C148.833 104.046 148.023 106.549 146.777 109.195C139.921 124.426 144.408 140.445 157.497 147.524C161.049 149.383 162.483 149.741 166.409 149.812C172.081 149.812 174.761 148.382 179.061 143.09C183.175 138.085 184.484 134.509 184.484 128.359C184.484 119.135 180.121 112.055 172.143 108.194C169.775 107.121 167.22 105.619 166.347 104.976C164.851 103.76 164.851 103.689 166.098 102.545C168.03 100.828 178.189 101.472 182.115 103.617C189.22 107.55 193.272 114.129 194.518 123.926C195.204 129.146 195.141 129.861 193.396 137.799C193.147 139.086 193.583 139.658 195.765 140.945C203.867 145.665 216.893 145.593 225.182 140.802C229.42 138.299 235.341 131.22 237.71 125.714C240.577 119.206 241.387 114.201 241.075 105.333C240.826 98.8975 240.577 97.5389 238.707 93.1768C237.273 89.8873 235.217 86.7409 232.163 83.3085C227.239 77.7307 223.063 74.7989 217.454 73.0826L213.714 71.867L213.59 64.0009C213.465 56.7785 213.34 55.8489 211.595 52.2734C209.476 47.8398 205.737 44.1213 201.935 42.5481C198.195 41.0464 190.467 41.1894 187.288 42.8341Z" fill="#FFF9F9"/>
<path d="M366.038 122.567C360.055 124.784 355.131 129.504 352.95 135.01C351.828 137.942 351.454 147.881 352.327 152.458C352.576 153.96 354.196 157.249 355.879 159.824C357.624 162.326 358.995 164.543 358.995 164.758C358.995 164.901 357.5 165.616 355.754 166.259C348.026 169.12 342.292 177.129 341.98 185.424C341.794 189.858 342.479 190.43 349.771 191.931C352.887 192.575 357.126 193.934 359.245 194.935C368.905 199.583 378.067 209.38 383.926 221.25C387.852 229.259 389.161 230.832 392.464 231.762C403.807 234.765 418.018 226.685 423.502 214.171C425.31 210.023 425.372 209.523 425.372 200.226C425.372 190.93 425.31 190.43 423.502 186.282C422.38 183.636 419.887 179.989 417.145 176.843L412.658 171.694L414.59 166.903C419.14 155.819 415.649 143.805 406.238 138.299C401.314 135.439 396.952 136.44 392.464 141.446C386.855 147.667 385.858 154.603 389.41 163.328C392.402 170.765 392.028 172.123 387.478 169.978C382.866 167.761 378.254 159.18 377.818 152.101C377.444 146.523 379.812 139.443 383.676 134.509C386.793 130.505 386.98 129.575 384.985 127.43C380.809 122.925 371.46 120.565 366.038 122.567Z" fill="#FFF9F9"/>
<path d="M270.555 141.66C266.255 142.59 262.515 145.093 258.651 149.383C254.538 154.031 252.294 157.893 250.487 163.399C249.115 167.618 249.115 167.618 243.444 168.333C236.276 169.334 228.797 175.484 227.177 181.849C225.307 189.142 226.491 198.081 230.044 202.729C231.103 204.088 233.846 206.233 236.089 207.52C239.642 209.523 240.888 209.88 244.877 209.88H249.489L249.552 215.315C249.614 219.963 249.863 221.107 251.359 223.682C253.665 227.686 257.342 230.403 261.082 230.832C264.759 231.19 267.252 229.903 269.683 226.184C271.179 223.968 271.428 222.895 271.428 219.105V214.6L267.252 209.737C264.884 207.02 263.014 204.589 263.014 204.302C263.014 203.301 268.748 203.802 270.929 204.946C273.921 206.591 276.726 210.023 278.159 213.742C279.156 216.316 279.281 217.818 278.969 221.822C278.782 224.468 278.72 226.685 278.907 226.685C279.094 226.685 280.901 225.755 282.833 224.611C284.828 223.467 288.941 221.536 291.995 220.249L297.605 218.032L305.333 208.736L313.061 199.44L308.449 194.077C305.956 191.145 303.526 188.785 303.152 188.785C301.469 188.785 301.095 186.997 302.03 182.707C302.965 178.059 303.276 167.547 302.528 164.114C301.656 159.967 298.415 153.531 295.423 150.17C289.066 142.804 279.655 139.586 270.555 141.66Z" fill="#FFF9F9"/>
<path d="M336.247 209.594C328.456 210.524 323.781 213.313 317.3 220.821C314.62 223.968 312.75 226.899 311.503 230.189C308.636 237.554 309.135 237.054 304.523 236.839C295.486 236.339 287.695 241.273 283.706 249.925C282.335 252.929 282.086 254.431 282.086 259.579C282.023 267.159 283.893 272.236 288.505 277.385C292.93 282.391 297.293 284.178 303.713 283.678L308.512 283.32V286.109V288.898H314.433C320.229 288.898 320.54 288.97 325.963 292.116C329.017 293.904 331.821 295.334 332.195 295.334C333.504 295.334 332.819 290.543 331.073 287.754C329.328 285.037 325.963 281.39 323.844 279.959C323.158 279.53 322.909 278.815 323.158 277.957C323.532 277.028 324.342 276.741 326.96 276.741C334.938 276.741 340.048 282.319 341.482 292.474C342.23 297.765 343.165 299.124 347.029 300.626C356.253 304.273 367.409 298.838 371.772 288.541C374.078 283.177 374.639 274.31 372.894 271.807L371.71 270.163L367.285 272.379C358.746 276.67 352.576 276.956 345.907 273.452C341.856 271.307 337.306 266.087 335.062 260.866C333.442 257.076 332.943 253.143 334.065 253.143C334.439 253.143 336.496 255.074 338.677 257.362C345.221 264.37 351.018 266.802 357.313 265.3C374.452 261.224 378.379 238.698 364.916 221.822C357.437 212.383 347.839 208.307 336.247 209.594Z" fill="#FFF9F9"/>
<path d="M183.424 216.674C179.56 217.603 177.379 219.176 173.701 223.467C170.211 227.472 166.409 235.266 166.409 238.269C166.409 240.486 167.531 241.63 172.33 244.205C177.628 247.065 183.86 254.502 185.73 260.008C187.662 265.729 188.161 276.384 186.727 281.819C185.73 285.895 183.611 288.97 182.676 287.754C182.427 287.396 181.866 283.892 181.492 279.959C180.246 267.302 175.509 259.222 166.534 254.359C162.607 252.214 161.922 252.071 155.502 252.071C149.394 252.071 148.273 252.285 145.156 253.93C138.176 257.72 132.878 265.157 129.887 275.454C127.643 283.32 127.643 286.109 129.887 288.827C131.819 291.186 144.471 298.981 161.174 308.206L171.832 314.069L191.09 303.057C201.686 296.979 211.969 291.258 213.964 290.471C220.009 287.825 222.253 288.326 234.469 294.762C238.146 296.693 241.823 298.194 242.633 298.051C246.186 297.479 247.744 281.461 245.064 273.023C243.007 266.444 238.769 260.437 233.285 256.075C229.857 253.358 224.372 251.642 218.14 251.213L212.219 250.784V243.204C212.219 236.482 212.032 235.195 210.536 231.548C208.417 226.256 203.867 220.75 199.816 218.461C196.201 216.459 187.974 215.529 183.424 216.674Z" fill="#FFF9F9"/>
<path d="M387.354 328.943L364.293 342.459L345.471 331.875C335.125 326.083 324.28 320.076 321.351 318.574C316.115 315.929 315.928 315.857 313.311 316.858C311.877 317.359 301.033 323.366 289.253 330.159L267.875 342.459L244.753 329.301C232.1 322.007 221.069 316.072 220.259 316.072C218.451 316.072 207.42 321.864 187.101 333.52L171.271 342.53L154.38 332.662C134.997 321.363 125.15 316.072 123.467 316.072C121.161 316.072 116.798 318.288 114.804 320.577C112.248 323.366 110.316 327.513 110.316 330.159C110.316 333.663 126.708 442.214 149.02 586.377C166.222 697.575 169.526 718.169 170.897 721.387C171.645 723.175 173.14 725.249 174.512 726.25C176.631 727.895 177.815 728.109 186.104 728.681C198.133 729.539 337.181 729.539 349.21 728.681C356.627 728.181 358.808 727.823 360.429 726.607C364.792 723.532 365.103 722.46 369.092 697.646C378.94 636.005 415.151 400.31 422.318 351.111C424.437 336.38 425.185 329.945 424.811 328.014C423.939 322.937 418.205 317.502 411.972 315.857C410.788 315.5 405.116 318.503 387.354 328.943ZM335.249 360.05C344.349 365.342 354.134 371.277 357.001 373.279L362.112 376.926L361.8 379.572C361.613 381.002 360.367 393.159 358.933 406.531C353.261 462.022 329.578 683.201 328.456 691.854C328.082 694.571 327.334 697.36 326.835 697.932C326.087 698.79 323.345 699.076 312.127 699.219L298.415 699.434L298.789 695.644C299.474 688.85 314.059 427.912 317.611 358.763C317.861 354.186 318.172 350.396 318.297 350.396C318.484 350.396 326.087 354.758 335.249 360.05ZM217.703 359.478C218.887 380.716 235.715 680.484 236.152 688.278C236.526 694.142 236.526 697.861 236.152 698.29C235.778 698.719 229.794 699.076 221.941 699.291L208.292 699.505L207.918 697.503C207.233 693.427 204.927 672.689 197.26 601.037C182.24 461.021 174.449 385.722 174.325 380.43L174.2 375.067L192.399 364.627C209.165 355.044 215.958 351.612 216.955 352.255C217.142 352.398 217.516 355.616 217.703 359.478Z" fill="#FFF9F9"/>
</svg>
